<svg xmlns="http://www.w3.org/2000/svg" viewBox="0 0 432.14 101.61"><defs><style>.cls-1{fill:none;}.cls-2{fill:#231f20;}</style></defs><g id="Layer_2" data-name="Layer 2"><g id="Layer_1-2" data-name="Layer 1"><path class="cls-1" d="M418.68,16.62a2.87,2.87,0,0,0,.85-2.38V9.64a2.82,2.82,0,0,0-.85-2.34,5.43,5.43,0,0,0-3.17-.67h-20V17.29h20A5.43,5.43,0,0,0,418.68,16.62Z"/><path class="cls-1" d="M94.44,16.62a2.87,2.87,0,0,0,.85-2.38V9.64a2.82,2.82,0,0,0-.85-2.34,5.43,5.43,0,0,0-3.17-.67h-20V17.29h20A5.43,5.43,0,0,0,94.44,16.62Z"/><polygon class="cls-1" points="136.56 23.01 153.34 23.01 145.07 7.43 136.56 23.01"/><path class="cls-1" d="M418.68,16.62a2.87,2.87,0,0,0,.85-2.38V9.64a2.82,2.82,0,0,0-.85-2.34,5.43,5.43,0,0,0-3.17-.67h-20V17.29h20A5.43,5.43,0,0,0,418.68,16.62Z"/><path class="cls-1" d="M94.44,16.62a2.87,2.87,0,0,0,.85-2.38V9.64a2.82,2.82,0,0,0-.85-2.34,5.43,5.43,0,0,0-3.17-.67h-20V17.29h20A5.43,5.43,0,0,0,94.44,16.62Z"/><polygon class="cls-1" points="136.56 23.01 153.34 23.01 145.07 7.43 136.56 23.01"/><polygon class="cls-2" points="0 6.85 17.57 6.85 17.57 38.3 26.49 38.3 26.49 6.85 44.13 6.85 44.13 0 0 0 0 6.85"/><path class="cls-2" d="M95.22,23.84c3,0,5.25-.59,6.61-1.77s2-3.07,2-5.65v-9q0-3.91-2-5.67C100.47.59,98.26,0,95.22,0H62.46V38.3h8.77V23.84h8.45L95.11,38.3H107.9L90.22,23.84Zm-24-6.55V6.63h20a5.43,5.43,0,0,1,3.17.67,2.82,2.82,0,0,1,.85,2.34v4.6a2.87,2.87,0,0,1-.85,2.38,5.43,5.43,0,0,1-3.17.67Z"/><path class="cls-2" d="M141.09,0,119.42,38.3h8.88l4.45-8.37H157l4.6,8.37h10L149.68,0Zm-4.53,23,8.51-15.58L153.34,23Z"/><path class="cls-2" d="M221.63,0H198.77q-5.58,0-7.54,1.92c-1.3,1.28-2,3.66-2,7.14V29.24c0,3.51.66,5.89,2,7.16s3.82,1.9,7.54,1.9h22.86c3.7,0,6.2-.63,7.52-1.9s2-3.65,2-7.16V24.71l-8.92-1.84v8.22h-24V6.85h24V14.1l8.92-1.42V9.06q0-5.22-2-7.14C227.83.64,225.33,0,221.63,0Z"/><polygon class="cls-2" points="300.04 0 287.14 0 265.91 15.98 265.91 0 256.92 0 256.92 38.3 265.91 38.3 265.91 21.45 288.84 38.3 303.16 38.3 274.68 18.05 300.04 0"/><polygon class="cls-2" points="332.18 21.6 349.86 21.6 349.86 15.08 332.18 15.08 332.18 6.52 362.47 6.52 362.47 0 323.26 0 323.26 38.3 362.83 38.3 362.83 31.09 332.18 31.09 332.18 21.6"/><path class="cls-2" d="M419.46,23.84c3,0,5.25-.59,6.61-1.77s2.05-3.07,2.05-5.65v-9q0-3.91-2.05-5.67C424.71.59,422.5,0,419.46,0H386.7V38.3h8.77V23.84h8.45L419.35,38.3h12.79L414.46,23.84Zm-24-6.55V6.63h20a5.43,5.43,0,0,1,3.17.67,2.82,2.82,0,0,1,.85,2.34v4.6a2.87,2.87,0,0,1-.85,2.38,5.43,5.43,0,0,1-3.17.67Z"/><path class="cls-2" d="M223.67,76.71H199.79V68.49h25.08v4.35L232.73,71v-.8q0-4.71-2-6.56t-7.44-1.85H201.49q-5.58,0-7.53,1.92c-1.31,1.29-2,3.66-2,7.14v4.24q0,5.22,2,7.14t7.53,1.92h23.88v8.74H198.3V88.35L190.44,90V91q0,5.2,2,7.13c1.31,1.29,3.84,1.92,7.59,1.92h23.66c3.74,0,6.27-.63,7.59-1.92s2-3.66,2-7.13V85.77q0-5.22-2-7.14T223.67,76.71Z"/><path class="cls-2" d="M293.45,92.88h-25.4V61.78h-8.91V91q0,5.25,2,7.15t7.52,1.9h24.21q5.58,0,7.53-1.9t2-7.15V61.78h-8.88Z"/><rect class="cls-2" x="329.36" y="61.78" width="8.91" height="38.3"/><polygon class="cls-2" points="381.75 89.47 366.24 61.78 356.05 61.78 378.2 100.08 384.36 100.08 405.41 61.78 396.53 61.78 381.75 89.47"/><rect class="cls-2" x="423.23" y="61.78" width="8.91" height="38.3"/><path class="cls-2" d="M118.24,59.81c0,10.13-10.76,20.9-20.89,20.9,10.13,0,20.89,10.77,20.89,20.9,0-10.13,10.77-20.9,20.9-20.9C129,80.71,118.24,69.94,118.24,59.81Z"/></g></g></svg>