<svg xmlns="http://www.w3.org/2000/svg" viewBox="0 0 664.67 111.53"><defs><style>.cls-1{fill:#231f20;}</style></defs><g id="Layer_2" data-name="Layer 2"><g id="Layer_1-2" data-name="Layer 1"><polygon class="cls-1" points="232.53 11.81 250.11 11.81 250.11 43.26 259.02 43.26 259.02 11.81 276.67 11.81 276.67 4.96 232.53 4.96 232.53 11.81"/><path class="cls-1" d="M322.75,28.8h5c3.05,0,5.25-.59,6.62-1.77s2-3.07,2-5.65v-9q0-3.92-2-5.67C333,5.55,330.8,5,327.75,5H295v38.3h8.76V28.8h8.45l15.43,14.46h12.79Zm-19-6.56V11.59h20a5.41,5.41,0,0,1,3.17.67,2.82,2.82,0,0,1,.85,2.34v4.6a2.83,2.83,0,0,1-.85,2.37,5.33,5.33,0,0,1-3.17.67Z"/><path class="cls-1" d="M373.62,5,352,43.26h8.88l4.46-8.37h24.27l4.61,8.37h10L382.21,5Zm-4.53,23,8.52-15.58L385.87,28Z"/><path class="cls-1" d="M431.3,43.26h22.86q5.55,0,7.52-1.9c1.32-1.27,2-3.65,2-7.16V29.67l-8.92-1.85v8.23h-24V11.81h24v7.25l8.92-1.42V14q0-5.22-2-7.14T454.16,5H431.3q-5.58,0-7.54,1.92T421.81,14V34.2c0,3.51.65,5.89,1.95,7.16S427.58,43.26,431.3,43.26Z"/><polygon class="cls-1" points="532.57 4.96 519.67 4.96 498.44 20.94 498.44 4.96 489.45 4.96 489.45 43.26 498.44 43.26 498.44 26.41 521.38 43.26 535.69 43.26 507.21 23 532.57 4.96"/><polygon class="cls-1" points="595.36 36.05 564.71 36.05 564.71 26.56 582.39 26.56 582.39 20.04 564.71 20.04 564.71 11.48 595 11.48 595 4.96 555.79 4.96 555.79 43.26 595.36 43.26 595.36 36.05"/><path class="cls-1" d="M647,28.8h5c3,0,5.25-.59,6.62-1.77s2-3.07,2-5.65v-9q0-3.92-2-5.67C657.24,5.55,655,5,652,5H619.24v38.3H628V28.8h8.45l15.43,14.46h12.79Zm-19-6.56V11.59h20a5.41,5.41,0,0,1,3.17.67,2.82,2.82,0,0,1,.85,2.34v4.6a2.83,2.83,0,0,1-.85,2.37,5.33,5.33,0,0,1-3.17.67Z"/><path class="cls-1" d="M456.2,81.67H432.32V73.45H457.4v4.34L465.26,76v-.8q0-4.71-2.05-6.56t-7.44-1.85H434q-5.58,0-7.53,1.92t-2,7.14V80q0,5.22,2,7.14T434,89.1h23.89v8.73H430.84V93.3L423,94.93V96q0,5.2,2,7.13c1.31,1.28,3.85,1.92,7.59,1.92H456.2q5.63,0,7.59-1.92t2-7.13V90.73q0-5.22-2-7.14T456.2,81.67Z"/><path class="cls-1" d="M526,97.83H500.58V66.74h-8.91V96q0,5.25,2,7.15c1.31,1.27,3.82,1.9,7.51,1.9h24.21q5.58,0,7.54-1.9t2-7.15V66.74H526Z"/><rect class="cls-1" x="561.89" y="66.74" width="8.91" height="38.3"/><polygon class="cls-1" points="614.28 94.43 598.77 66.74 588.59 66.74 610.73 105.04 616.89 105.04 637.94 66.74 629.06 66.74 614.28 94.43"/><rect class="cls-1" x="655.76" y="66.74" width="8.91" height="38.3"/><path class="cls-1" d="M350.77,64.77c0,10.13-10.76,20.9-20.89,20.9,10.13,0,20.89,10.76,20.89,20.9,0-10.14,10.77-20.9,20.9-20.9C361.54,85.67,350.77,74.9,350.77,64.77Z"/><path class="cls-1" d="M231.82,79.1l-17.09-5.92-15.34-14.9L186.24,35.06l-16-19.5L145.49,2.63,107.8,0,55.43,10.52l-26.07.65L18.41,3.07l-4.17,9L5,22.57v8.32L0,38.12l12.05,5.26,10.74-2.63L41,40.1,71.43,57.84l19.72,5.48,43.38,35.06.66,13.15,10.74-13.15L131.25,78.22l32.2-9.42L151.4,48l2.41-3.72h15.12l5.48-5.48,14.46,24.1,18.84,17.31,23.23,7.67,19.94-3.5-6.36-5.48Zm-108.9-9L112.18,54.56,125.44,50l12.38,12.27Z"/></g></g></svg>