<svg xmlns="http://www.w3.org/2000/svg" viewBox="0 0 816.3 471.23"><defs><style>.cls-1{fill:none;}.cls-2{fill:#231f20;}</style></defs><g id="Layer_2" data-name="Layer 2"><g id="Layer_1-2" data-name="Layer 1"><polygon class="cls-1" points="175.12 151.27 110.99 119.8 111.23 120.43 115.66 149.15 175.12 151.27"/><polygon class="cls-1" points="114.53 149.37 111.48 129.53 93.17 159.54 114.53 149.37"/><polygon class="cls-1" points="369.06 133.81 329.58 80.99 319.72 82.19 273.09 118.04 369.06 133.81"/><polygon class="cls-1" points="92.61 161.07 105.6 175.75 106.65 175.49 107.1 175.38 107.57 175.36 108.99 175.31 114.36 150.72 92.61 161.07"/><polygon class="cls-1" points="318.2 81.92 197.31 106.19 271.54 117.79 318.2 81.92"/><polygon class="cls-1" points="269.39 118.61 194.07 106.84 191.94 107.27 191.55 107.35 191.15 107.36 188.38 107.43 178.56 151.05 269.39 118.61"/><polygon class="cls-1" points="112.85 118.11 181.5 107.61 124.62 109.04 124.02 109.05 124.32 109.45 112.85 118.11"/><polygon class="cls-1" points="82.31 181.45 104.34 176.06 91.82 161.9 82.31 181.45"/><polygon class="cls-1" points="67 175.83 80.76 181.83 80.87 181.8 90.35 162.31 67 175.83"/><polygon class="cls-1" points="67.03 136.19 67.03 156.22 66.21 157.4 56.54 171.26 65.7 175.26 90.78 160.74 67.03 136.19"/><polygon class="cls-1" points="404.83 231.84 434.34 204.82 431.94 200.68 431.24 199.47 376.72 203.98 404.46 231.47 404.83 231.84"/><polygon class="cls-1" points="99 91.28 98.35 90.8 90.22 108.33 108.91 117.5 99 91.28"/><polygon class="cls-1" points="110.63 118.34 122.98 109.03 121.78 108.14 100.7 92.54 110.4 118.23 110.63 118.34"/><polygon class="cls-1" points="111.21 127.78 110.13 120.72 109.5 119.07 89.7 109.35 89.38 109.71 87.06 112.36 92.07 159.15 111.21 127.78"/><polygon class="cls-1" points="86.03 113.54 67.36 134.88 90.93 159.21 86.03 113.54"/><polygon class="cls-1" points="177.38 151.11 187.1 107.91 112.58 119.3 177.38 151.11"/><path class="cls-1" d="M558.34,224.66l30.36,29.5,0-.75,25.46.66a8.79,8.79,0,0,1,6.84-7.85l-16.76-41.5a7.11,7.11,0,1,1-3.6-13.75l-6.13-44.12.58-.08h0a10.45,10.45,0,0,1-8.87-5l-33.59,18.49a7.12,7.12,0,1,1-13.54,3.56l-15.58,0,1.27,1.56Z"/><polygon class="cls-1" points="515.36 161.12 481.81 120.21 451.96 136.21 515.36 161.12"/><polygon class="cls-1" points="481.07 119.31 481.04 119.27 421.57 88.22 450.8 135.53 481.07 119.31"/><path class="cls-1" d="M418.68,448a2.87,2.87,0,0,0,.85-2.38v-4.6a2.82,2.82,0,0,0-.85-2.34,5.43,5.43,0,0,0-3.17-.67h-20V448.7h20A5.43,5.43,0,0,0,418.68,448Z"/><polygon class="cls-1" points="449.58 135.73 419.74 87.44 371.75 134.07 449.58 135.73"/><path class="cls-1" d="M94.44,448a2.87,2.87,0,0,0,.85-2.38v-4.6a2.82,2.82,0,0,0-.85-2.34,5.43,5.43,0,0,0-3.17-.67h-20V448.7h20A5.43,5.43,0,0,0,94.44,448Z"/><polygon class="cls-1" points="136.56 454.42 153.34 454.42 145.07 438.84 136.56 454.42"/><polygon class="cls-1" points="369.8 198.52 369.8 137.41 339.26 209.12 368.15 199.09 369.8 198.52"/><polygon class="cls-1" points="266.71 163.59 271.04 119.24 180.17 151.69 266.71 163.59"/><polygon class="cls-1" points="272.21 119.06 267.88 163.46 367.78 134.76 272.21 119.06"/><polygon class="cls-1" points="334.33 210.83 337.8 209.63 369.37 135.49 268.5 164.47 332.06 211.62 334.33 210.83"/><polygon class="cls-1" points="358.81 256.51 337.15 225.12 332.2 270.03 358.81 256.51"/><polygon class="cls-1" points="418.46 87.08 331 80.98 370.44 133.74 418.46 87.08"/><polygon class="cls-1" points="370.94 136.03 370.94 198.25 372.88 200.17 375.65 202.92 430.61 198.37 430.54 198.25 430.56 198.21 370.94 136.03"/><polygon class="cls-1" points="400.84 234.94 401.24 234.72 369.8 203.56 369.78 203.54 369.65 203.42 335.83 215.16 362.93 254.42 400.84 234.94"/><polygon class="cls-1" points="179.03 152.69 223.01 213.1 233.64 219.29 236.72 220.15 266.33 164.69 179.03 152.69"/><polygon class="cls-1" points="441.86 184.31 478.73 184.31 491.37 171.67 492.59 170.45 450.98 137.32 441.86 184.31"/><polygon class="cls-1" points="403.38 238.77 380.69 250.78 441.68 254.03 456.46 249.71 406.67 237.03 403.38 238.77"/><polygon class="cls-1" points="500.04 175.07 531.05 226.75 518.94 167.27 500.04 175.07"/><polygon class="cls-1" points="371.74 135.21 431.2 197.22 432.06 195.9 438.21 186.4 439.56 184.31 440.74 184.31 449.91 136.84 371.74 135.21"/><polygon class="cls-1" points="405.64 232.64 408.88 235.86 408.18 236.23 458.61 249.08 459.77 248.74 434.93 205.84 405.64 232.64"/><polygon class="cls-1" points="554.35 226.92 521 168 520.01 166.78 532.76 229.44 535.05 233.41 535.09 233.48 537.68 235.87 554.59 227.33 554.35 226.92"/><polygon class="cls-1" points="516.85 162.93 453.93 138.21 493.4 169.63 495.51 167.52 498.53 172.55 499.45 174.08 519.28 165.89 516.85 162.93"/><polygon class="cls-1" points="641.83 282.34 641.12 295.09 679.42 288.35 671.84 281.82 641.83 282.34"/><polygon class="cls-1" points="639.58 282.1 612.15 272.6 628.95 292.05 632.89 293.35 639.96 295.25 640.69 282.36 640.35 282.36 639.58 282.1"/><polygon class="cls-1" points="595.97 267 595.01 266.67 594.32 265.99 584.29 277.3 626.84 291.35 609.99 271.85 595.97 267"/><polygon class="cls-1" points="555.41 228.2 538.59 236.69 581.95 276.53 583.12 276.91 593.49 265.19 555.41 228.2"/><polygon class="cls-1" points="368.19 257.4 379.23 272.3 383.19 271.14 438.36 255 378.72 251.83 368.19 257.4"/><polygon class="cls-1" points="328.65 212.81 330.75 212.08 267.42 165.09 237.85 220.46 252.1 224.42 330.68 215.74 328.65 212.81"/><polygon class="cls-1" points="156.85 174.54 220.55 211.66 177.72 152.83 156.85 174.54"/><polygon class="cls-1" points="331.41 216.81 255.06 225.24 283.39 233.11 284.3 233.36 285.04 233.96 285.12 234.02 331.71 217.24 331.41 216.81"/><polygon class="cls-1" points="117.33 150.35 155.89 173.89 176.48 152.47 117.33 150.35"/><polygon class="cls-1" points="110.17 175.27 153.39 173.71 115.55 150.61 110.17 175.27"/><polygon class="cls-1" points="376.94 272.97 378.06 272.64 367.16 257.94 365.37 258.89 361.77 260.8 361.74 260.76 348.88 285.15 378.9 275.67 376.94 272.97"/><polygon class="cls-1" points="394.61 322.5 395.73 323.41 397.32 324.7 397.42 326.51 415.93 326.51 390.35 291.38 394.7 322.49 394.61 322.5"/><polygon class="cls-1" points="332.38 218.22 286.16 234.87 330.94 271.05 336.15 223.68 332.38 218.22"/><polygon class="cls-1" points="379.41 276.73 349.59 286.13 393.41 321.53 388.92 289.41 382.21 280.21 379.41 276.73"/><polygon class="cls-1" points="398.51 348.41 415.46 327.65 397.47 327.65 398.51 348.41"/><polygon class="cls-1" points="359.47 257.46 331.63 271.61 347.83 284.7 361.01 259.7 359.47 257.46"/><polygon class="cls-1" points="175.12 151.27 110.99 119.8 111.23 120.43 115.66 149.15 175.12 151.27"/><polygon class="cls-1" points="92.61 161.07 105.6 175.75 106.65 175.49 107.1 175.38 107.57 175.36 108.99 175.31 114.36 150.72 92.61 161.07"/><polygon class="cls-1" points="112.85 118.11 181.5 107.61 124.62 109.04 124.02 109.05 124.32 109.45 112.85 118.11"/><polygon class="cls-1" points="114.53 149.37 111.48 129.53 93.17 159.54 114.53 149.37"/><polygon class="cls-1" points="269.39 118.61 194.07 106.84 191.94 107.27 191.55 107.35 191.15 107.36 188.38 107.43 178.56 151.05 269.39 118.61"/><polygon class="cls-1" points="369.06 133.81 329.58 80.99 319.72 82.19 273.09 118.04 369.06 133.81"/><polygon class="cls-1" points="318.2 81.92 197.31 106.19 271.54 117.79 318.2 81.92"/><polygon class="cls-1" points="110.63 118.34 122.98 109.03 121.78 108.14 100.7 92.54 110.4 118.23 110.63 118.34"/><polygon class="cls-1" points="404.83 231.84 434.34 204.82 431.94 200.68 431.24 199.47 376.72 203.98 404.46 231.47 404.83 231.84"/><polygon class="cls-1" points="82.31 181.45 104.34 176.06 91.82 161.9 82.31 181.45"/><polygon class="cls-1" points="67 175.83 80.76 181.83 80.87 181.8 90.35 162.31 67 175.83"/><polygon class="cls-1" points="67.03 136.19 67.03 156.22 66.21 157.4 56.54 171.26 65.7 175.26 90.78 160.74 67.03 136.19"/><polygon class="cls-1" points="99 91.28 98.35 90.8 90.22 108.33 108.91 117.5 99 91.28"/><polygon class="cls-1" points="111.21 127.78 110.13 120.72 109.5 119.07 89.7 109.35 89.38 109.71 87.06 112.36 92.07 159.15 111.21 127.78"/><polygon class="cls-1" points="86.03 113.54 67.36 134.88 90.93 159.21 86.03 113.54"/><polygon class="cls-1" points="177.38 151.11 187.1 107.91 112.58 119.3 177.38 151.11"/><polygon class="cls-1" points="369.8 198.52 369.8 137.41 339.26 209.12 368.15 199.09 369.8 198.52"/><path class="cls-1" d="M558.34,224.66l30.36,29.5,0-.75,25.46.66a8.79,8.79,0,0,1,6.84-7.85l-16.76-41.5a7.11,7.11,0,1,1-3.6-13.75l-6.13-44.12.58-.08h0a10.45,10.45,0,0,1-8.87-5l-33.59,18.49a7.12,7.12,0,1,1-13.54,3.56l-15.58,0,1.27,1.56Z"/><polygon class="cls-1" points="481.07 119.31 481.04 119.27 421.57 88.22 450.8 135.53 481.07 119.31"/><polygon class="cls-1" points="515.36 161.12 481.81 120.21 451.96 136.21 515.36 161.12"/><path class="cls-1" d="M418.68,448a2.87,2.87,0,0,0,.85-2.38v-4.6a2.82,2.82,0,0,0-.85-2.34,5.43,5.43,0,0,0-3.17-.67h-20V448.7h20A5.43,5.43,0,0,0,418.68,448Z"/><path class="cls-1" d="M94.44,448a2.87,2.87,0,0,0,.85-2.38v-4.6a2.82,2.82,0,0,0-.85-2.34,5.43,5.43,0,0,0-3.17-.67h-20V448.7h20A5.43,5.43,0,0,0,94.44,448Z"/><polygon class="cls-1" points="136.56 454.42 153.34 454.42 145.07 438.84 136.56 454.42"/><polygon class="cls-1" points="449.58 135.73 419.74 87.44 371.75 134.07 449.58 135.73"/><polygon class="cls-1" points="266.71 163.59 271.04 119.24 180.17 151.69 266.71 163.59"/><polygon class="cls-1" points="334.33 210.83 337.8 209.63 369.37 135.49 268.5 164.47 332.06 211.62 334.33 210.83"/><polygon class="cls-1" points="272.21 119.06 267.88 163.46 367.78 134.76 272.21 119.06"/><polygon class="cls-1" points="418.46 87.08 331 80.98 370.44 133.74 418.46 87.08"/><polygon class="cls-1" points="370.94 136.03 370.94 198.25 372.88 200.17 375.65 202.92 430.61 198.37 430.54 198.25 430.56 198.21 370.94 136.03"/><polygon class="cls-1" points="358.81 256.51 337.15 225.12 332.2 270.03 358.81 256.51"/><polygon class="cls-1" points="400.84 234.94 401.24 234.72 369.8 203.56 369.78 203.54 369.65 203.42 335.83 215.16 362.93 254.42 400.84 234.94"/><polygon class="cls-1" points="441.86 184.31 478.73 184.31 491.37 171.67 492.59 170.45 450.98 137.32 441.86 184.31"/><polygon class="cls-1" points="516.85 162.93 453.93 138.21 493.4 169.63 495.51 167.52 498.53 172.55 499.45 174.08 519.28 165.89 516.85 162.93"/><polygon class="cls-1" points="500.04 175.07 531.05 226.75 518.94 167.27 500.04 175.07"/><polygon class="cls-1" points="403.38 238.77 380.69 250.78 441.68 254.03 456.46 249.71 406.67 237.03 403.38 238.77"/><polygon class="cls-1" points="405.64 232.64 408.88 235.86 408.18 236.23 458.61 249.08 459.77 248.74 434.93 205.84 405.64 232.64"/><polygon class="cls-1" points="554.35 226.92 521 168 520.01 166.78 532.76 229.44 535.05 233.41 535.09 233.48 537.68 235.87 554.59 227.33 554.35 226.92"/><polygon class="cls-1" points="371.74 135.21 431.2 197.22 432.06 195.9 438.21 186.4 439.56 184.31 440.74 184.31 449.91 136.84 371.74 135.21"/><polygon class="cls-1" points="641.83 282.34 641.12 295.09 679.42 288.35 671.84 281.82 641.83 282.34"/><polygon class="cls-1" points="555.41 228.2 538.59 236.69 581.95 276.53 583.12 276.91 593.49 265.19 555.41 228.2"/><polygon class="cls-1" points="639.58 282.1 612.15 272.6 628.95 292.05 632.89 293.35 639.96 295.25 640.69 282.36 640.35 282.36 639.58 282.1"/><polygon class="cls-1" points="110.17 175.27 153.39 173.71 115.55 150.61 110.17 175.27"/><polygon class="cls-1" points="595.97 267 595.01 266.67 594.32 265.99 584.29 277.3 626.84 291.35 609.99 271.85 595.97 267"/><polygon class="cls-1" points="179.03 152.69 223.01 213.1 233.64 219.29 236.72 220.15 266.33 164.69 179.03 152.69"/><polygon class="cls-1" points="156.85 174.54 220.55 211.66 177.72 152.83 156.85 174.54"/><polygon class="cls-1" points="328.65 212.81 330.75 212.08 267.42 165.09 237.85 220.46 252.1 224.42 330.68 215.74 328.65 212.81"/><polygon class="cls-1" points="368.19 257.4 379.23 272.3 383.19 271.14 438.36 255 378.72 251.83 368.19 257.4"/><polygon class="cls-1" points="331.41 216.81 255.06 225.24 283.39 233.11 284.3 233.36 285.04 233.96 285.12 234.02 331.71 217.24 331.41 216.81"/><polygon class="cls-1" points="117.33 150.35 155.89 173.89 176.48 152.47 117.33 150.35"/><polygon class="cls-1" points="376.94 272.97 378.06 272.64 367.16 257.94 365.37 258.89 361.77 260.8 361.74 260.76 348.88 285.15 378.9 275.67 376.94 272.97"/><polygon class="cls-1" points="398.51 348.41 415.46 327.65 397.47 327.65 398.51 348.41"/><polygon class="cls-1" points="394.61 322.5 395.73 323.41 397.32 324.7 397.42 326.51 415.93 326.51 390.35 291.38 394.7 322.49 394.61 322.5"/><polygon class="cls-1" points="379.41 276.73 349.59 286.13 393.41 321.53 388.92 289.41 382.21 280.21 379.41 276.73"/><polygon class="cls-1" points="332.38 218.22 286.16 234.87 330.94 271.05 336.15 223.68 332.38 218.22"/><polygon class="cls-1" points="359.47 257.46 331.63 271.61 347.83 284.7 361.01 259.7 359.47 257.46"/><path class="cls-2" d="M641.08,277.77l-43.61-15.09-8.35-8.12,25,.66a8.79,8.79,0,0,0,17.58-.4,8.68,8.68,0,0,0-1.24-4.44l21.88-11.46a3.56,3.56,0,1,0-.72-2.14,3.42,3.42,0,0,0,.19,1.12l-22,11.52a8.78,8.78,0,0,0-6.92-3.42c-.25,0-.48.06-.72.08l-16.87-41.76a7.06,7.06,0,0,0,2.52-10.76l14.69-14.18a4.72,4.72,0,1,0-1.76-3.67,4.79,4.79,0,0,0,1,2.85l-14.66,14.15a7.06,7.06,0,0,0-4.84-1.93c-.16,0-.3,0-.45,0l-6.12-44.11a10.43,10.43,0,0,0,4.87-19.35l14-19.85a6.06,6.06,0,0,0,9.1-5.27,6.09,6.09,0,0,0-12.18,0,6,6,0,0,0,2.14,4.6l-14.08,20a10.35,10.35,0,0,0-12.95,3.42L535.44,95.56a6.17,6.17,0,0,0,.21-1.5,6.15,6.15,0,1,0-.61,2.61L586,131.21a10.39,10.39,0,0,0-1.36,5.08,10.27,10.27,0,0,0,1.07,4.52l-33.6,18.5a7.11,7.11,0,0,0-13,3.42h-16.5L484,115.64l-15.66-8.17,3.95-30.95-1.14-.15-3.89,30.53L428.67,86.76a9.68,9.68,0,0,0,1.63.17,10.48,10.48,0,0,0,10.48-10.48c0-.35-.07-.67-.1-1l46.68-12.29a5,5,0,0,0,6.13,3.68l6,15.18,1.06-.42-6-15.19a5,5,0,1,0-6.67-6.88,5,5,0,0,0-.64,2.48L440.55,74.29a10.48,10.48,0,0,0-6.23-7.52L449.48,11.6a6,6,0,1,0-1-.54L433.23,66.43a10.14,10.14,0,0,0-10.53,2.82l-9.8-8.47c.11-.15.23-.29.33-.45a6.19,6.19,0,1,0-1.08,1.32L422,70.14a10.35,10.35,0,0,0,.75,13.52l-1.91-1-39-2.72-22.2-22.26a5.25,5.25,0,1,0-.48.34l-.4.4,21.35,21.4L324.65,76,266.16,87.7l14.07-12.82a7.06,7.06,0,0,0,7.57.35l-.5.27L291,82.09l1-.56L288.3,75l-.49.27A7.08,7.08,0,0,0,291,67l18.52-1.67a6.62,6.62,0,0,0,.4.91,5.89,5.89,0,1,0-.7-2l-18.69,1.68c-.06-.12-.09-.24-.16-.36a7,7,0,0,0-5.46-3.49l.88-46a4.34,4.34,0,1,0-1.14,0l-.89,46a7,7,0,0,0-6.4,5.53l-23.92-5.44a3.32,3.32,0,1,0-1.65,2.76,3.39,3.39,0,0,0,1.41-1.64l24,5.46a7,7,0,0,0,.93,3.9,6.81,6.81,0,0,0,1.21,1.5L264,88.14,191,102.79l-66.53,1.67-28-20.68L85.93,106.7,62.45,133.53v21.25L49.59,173.23l30.75,13.42,27.4-6.71H108l1.18-.05,45-1.62,77.71,45.28,50.31,14L392.86,327l1.67,33.54,26.84-32.86h.51l-.25-.31.3-.37-37.46-51.43,82.18-24L435.9,198.39l6.15-9.51h38.58l14-14,36.9,61.5L557,259.81l-12.88,15.4a6.1,6.1,0,0,0-9.62,2L514.3,270.1a3.77,3.77,0,0,0,.08-.76,4,4,0,1,0-.48,1.84l20.21,7.12a6,6,0,0,0-.2,1.48,6.14,6.14,0,0,0,3.7,5.63l-22.29,52.28a3.64,3.64,0,0,0-1-.14,3.92,3.92,0,1,0,2,.58l22.34-52.37a5.92,5.92,0,0,0,1.34.16,6.14,6.14,0,0,0,3.06-.85L554.91,297a3,3,0,1,0,2.49-1.37,3,3,0,0,0-1.67.57l-11.68-11.8a6.1,6.1,0,0,0,2.05-3.8l17.54-3.32-.21-1.13-17.28,3.28a6.09,6.09,0,0,0-1.26-3.37l12.94-15.47,21.75,20,59.26,19.56,50.88-8.94-16.22-14Zm-102-113.9a7.12,7.12,0,1,0,13.54-3.56l33.59-18.49a10.45,10.45,0,0,0,8.87,5h0l-.58.08L600.66,191a7.12,7.12,0,1,0,3.6,13.75L621,246.22a8.79,8.79,0,0,0-6.84,7.85l-25.46-.66,0,.75-30.36-29.5L524.79,165.4l-1.27-1.56Zm-23.74-2.75L452,136.2l29.85-16ZM481,119.27l0,0L450.8,135.53,421.57,88.22Zm-31.46,16.46-77.83-1.66,48-46.63ZM418.46,87.08l-48,46.66L331,81Zm12.15,111.29-54.95,4.55-2.78-2.75-1.94-1.92V136l59.62,62.18,0,0Zm-94.78,16.79,33.82-11.74.13.12,0,0,31.44,31.16-.4.21-37.91,19.49Zm23,41.35L332.2,270l4.95-44.91Zm-86.6-137.45,95.57,15.7-99.9,28.69Zm-5.5,44.53-86.54-11.9L271,119.24Zm102.66-28.1L337.8,209.63l-3.47,1.2-2.27.79L268.5,164.47Zm.43,1.92v61.11l-1.65.57-28.89,10ZM376.72,204l54.52-4.51.7,1.21,2.4,4.14-29.51,27-.37-.37ZM329.58,81l39.48,52.82-96-15.77,46.63-35.85Zm-11.38.93-46.66,35.87-74.22-11.6Zm-127,25.44h.4l.39-.08,2.13-.42,75.32,11.76-90.83,32.44,9.82-43.62Zm-13.77,43.75-64.8-31.81,74.52-11.39Zm-66.15-30.68-.24-.63,64.13,31.47-59.46-2.12Zm3.3,28.94L93.17,159.54l18.31-30ZM124.62,109l56.88-1.43L112.85,118.1l11.47-8.65-.3-.4Zm-2.83-.9,1.2.89-12.36,9.31-.23-.11-9.7-25.69ZM98.35,90.8l.65.48,9.91,26.22-18.69-9.17Zm-9,18.91.32-.36,19.8,9.72.62,1.65,1.09,7.06L92.07,159.15l-5-46.79ZM86,113.54l4.9,45.67L67.36,134.88ZM56.54,171.27l9.67-13.87.82-1.18v-20l23.75,24.55L65.7,175.26Zm24.22,10.56-13.76-6,23.35-13.51L80.87,181.8Zm1.55-.38,9.51-19.55,12.52,14.16ZM109,175.31l-1.42.05-.47,0-.45.11-1.05.26-13-14.68,21.75-10.35Zm1.18,0,5.38-24.66,37.84,23.1Zm7.16-24.92,59.15,2.12-20.59,21.42Zm39.52,24.19,20.87-21.71,42.83,58.83Zm76.79,44.75L223,213.1l-44-60.41,87.3,12-29.61,55.46Zm4.21,1.17,29.57-55.37,63.33,47-2.1.73,2,2.93-78.58,8.68ZM285,234l-.74-.6-.91-.25-28.33-7.87,76.35-8.43.3.43L285.12,234Zm1.12.91,46.22-16.65,3.77,5.46-5.21,47.37Zm45.47,36.74,27.84-14.15L361,259.7l-13.18,25Zm30.11-10.85,0,0,3.6-1.9,1.79-1,10.9,14.7-1.12.33,2,2.7-30,9.48Zm36.77,87.65-1-20.76h18Zm17.42-21.9H397.42l-.1-1.81-1.59-1.29-1.12-.91h.09l-4.35-31.11Zm-27-37.1,4.5,32.12-43.82-35.4,29.82-9.4,2.8,3.48Zm-5.73-18.27-3.95,1.16-11-14.9,10.53-5.57L438.36,255ZM441.68,254l-61-3.24,22.69-12,3.29-1.74,49.79,12.68Zm18.09-5.29-1.16.34-50.43-12.85.71-.37-3.25-3.22,29.29-26.8ZM439.56,184.3l-1.35,2.09-6.15,9.51-.86,1.32-59.46-62,78.17,1.63-9.17,47.46Zm51.81-12.63L478.73,184.3H441.86l9.12-47,41.61,33.13Zm7.16.88-3-5-2.11,2.11-39.47-31.42,62.92,24.72,2.43,3-19.83,8.19Zm1.51,2.52,18.9-7.8,12.11,59.48Zm35.05,58.41,0-.07-2.29-4L520,166.78l1,1.22,33.34,58.92.24.41-16.91,8.54Zm46.86,43-43.36-39.84,16.82-8.49,38.08,37-10.37,11.72Zm2.35.77,10-11.31.69.68,1,.33,14,4.85,16.85,19.5ZM640,295.25l-7.07-1.9-3.94-1.3-16.8-19.45,27.43,9.5.77.26h.34Zm1.15-.16.72-12.75,30-.52,7.58,6.53Z"/><path class="cls-2" d="M331.81,317.83a4.79,4.79,0,1,0,2.47-4.14l-27.19-20.47a4.66,4.66,0,0,0,.66-2.37,4.73,4.73,0,0,0-9.23-1.46l-51.73-10.84v-.05a4.73,4.73,0,0,0-3.22-4.47l-2.35-14a6.1,6.1,0,0,0,5.49-5.26L261.3,252a3.05,3.05,0,1,0-.22-1.13l-14.32,2.72a6.12,6.12,0,1,0-11.54,3.14l-27.8,17.73a4.78,4.78,0,1,0,.93.77l27.49-17.54a6.1,6.1,0,0,0,4.82,2.39h0l-.58.1,2.29,13.58-.33,0a4.74,4.74,0,1,0,4.57,5.92l51.69,10.78a2.58,2.58,0,0,0,0,.39,4.73,4.73,0,0,0,8.14,3.29l26.9,20.25A4.69,4.69,0,0,0,331.81,317.83Z"/><path class="cls-2" d="M220.69,64.89a4.78,4.78,0,1,0-6.54-1.76A4.79,4.79,0,0,0,220.69,64.89Z"/><path class="cls-2" d="M512.91,150.63,525,142.28a5.17,5.17,0,1,0-.65-.94l-12.06,8.35Z"/><path class="cls-2" d="M683.38,155.53a2.22,2.22,0,1,0,3-.82A2.22,2.22,0,0,0,683.38,155.53Z"/><path class="cls-2" d="M766.71,193.91l-27.17-9.51a3.5,3.5,0,0,0,.09-.8,4.12,4.12,0,0,0-2.47-3.77c1.67-3.07,5.16-10.45,12.85-28a2.19,2.19,0,1,0-1.58-3.25,2.15,2.15,0,0,0,.54,2.76c-4.5,10.25-10.58,23.81-12.89,28.2a3.68,3.68,0,0,0-.57-.06,4.12,4.12,0,0,0-2.35.73l-6.85-11.84a2.24,2.24,0,0,0,.46-.51,2.5,2.5,0,1,0-1.43,1.11l7,12.06a4,4,0,0,0-.87,2l-31.11-4a3,3,0,0,0-2.6-1.55,3.05,3.05,0,0,0-3.05,3.06h0l-.21-.54-11.2,4.34a4.65,4.65,0,0,0,.08-.75,6.11,6.11,0,0,0-6.11-6.11l-.16,0L673.22,152a4.07,4.07,0,0,0,1.15-1l8.72,5,.58-1-8.73-5a4,4,0,0,0,.12-2.74L705.3,128a2.56,2.56,0,0,0,.52.46,2.76,2.76,0,1,0-1.14-1.41l-30.11,19.14a4,4,0,0,0-4.44-1.74l-3.14-7a2.51,2.51,0,0,0,.66-.75,2.61,2.61,0,1,0-1.71,1.2l3.14,6.95a4,4,0,0,0-1.51,1.49,4.11,4.11,0,0,0,4.56,6l3.81,25.19a6.11,6.11,0,0,0-4.75,5.39l-14.62-2.3-.18,1.13,14.66,2.3.09-.57h0a6.08,6.08,0,0,0,3,5.24l-5.63,15.94,1.08.38,5.59-15.83a6.06,6.06,0,0,0,2,.38,5.88,5.88,0,0,0,1.52-.22l2.77,17.24,1.13-.18-2.8-17.45a6.16,6.16,0,0,0,3.1-3.4l11.83-4.58a3,3,0,0,0,6-.57c0-.11,0-.2-.06-.31l30.59,3.93.07-.57a4.13,4.13,0,0,0,1.21,2.91l-5.85,12.83,1,.48,5.75-12.63a4,4,0,0,0,2,.53,4.08,4.08,0,0,0,3.64-2.24L766.33,195Z"/><polygon class="cls-2" points="0 438.26 17.57 438.26 17.57 469.71 26.49 469.71 26.49 438.26 44.13 438.26 44.13 431.41 0 431.41 0 438.26"/><path class="cls-2" d="M95.22,455.25c3,0,5.25-.59,6.61-1.77s2-3.07,2-5.65v-9q0-3.91-2-5.67c-1.36-1.17-3.57-1.76-6.61-1.76H62.46v38.3h8.77V455.25h8.45l15.43,14.46H107.9L90.22,455.25Zm-24-6.55V438h20a5.43,5.43,0,0,1,3.17.67,2.82,2.82,0,0,1,.85,2.34v4.6a2.87,2.87,0,0,1-.85,2.38,5.43,5.43,0,0,1-3.17.67Z"/><path class="cls-2" d="M141.09,431.41l-21.67,38.3h8.88l4.45-8.37H157l4.6,8.37h10l-21.95-38.3Zm-4.53,23,8.51-15.58,8.27,15.58Z"/><path class="cls-2" d="M221.63,431.41H198.77q-5.58,0-7.54,1.92c-1.3,1.28-2,3.66-2,7.14v20.18c0,3.51.66,5.89,2,7.16s3.82,1.9,7.54,1.9h22.86c3.7,0,6.2-.63,7.52-1.9s2-3.65,2-7.16v-4.53l-8.92-1.84v8.22h-24V438.26h24v7.25l8.92-1.42v-3.62q0-5.22-2-7.14C227.83,432.05,225.33,431.41,221.63,431.41Z"/><polygon class="cls-2" points="300.04 431.41 287.14 431.41 265.91 447.39 265.91 431.41 256.92 431.41 256.92 469.71 265.91 469.71 265.91 452.86 288.84 469.71 303.16 469.71 274.68 449.46 300.04 431.41"/><polygon class="cls-2" points="332.18 453.01 349.86 453.01 349.86 446.49 332.18 446.49 332.18 437.93 362.47 437.93 362.47 431.41 323.26 431.41 323.26 469.71 362.83 469.71 362.83 462.5 332.18 462.5 332.18 453.01"/><path class="cls-2" d="M419.46,455.25c3,0,5.25-.59,6.61-1.77s2.05-3.07,2.05-5.65v-9q0-3.91-2.05-5.67c-1.36-1.17-3.57-1.76-6.61-1.76H386.7v38.3h8.77V455.25h8.45l15.43,14.46h12.79l-17.68-14.46Zm-24-6.55V438h20a5.43,5.43,0,0,1,3.17.67,2.82,2.82,0,0,1,.85,2.34v4.6a2.87,2.87,0,0,1-.85,2.38,5.43,5.43,0,0,1-3.17.67Z"/><path class="cls-2" d="M607.83,446.34H584v-8.23H609v4.35l7.86-1.85v-.79q0-4.71-2-6.56t-7.44-1.85H585.65q-5.58,0-7.53,1.92t-2,7.14v4.24q0,5.22,2,7.14t7.53,1.92h23.88v8.73H582.47V458l-7.87,1.63v1q0,5.22,2,7.14t7.59,1.92h23.66c3.75,0,6.27-.64,7.59-1.92s2-3.66,2-7.14V455.4q0-5.22-2-7.14C614.1,447,611.58,446.34,607.83,446.34Z"/><path class="cls-2" d="M677.61,462.5h-25.4V431.41H643.3v29.24c0,3.51.66,5.89,2,7.16s3.82,1.9,7.51,1.9H677q5.58,0,7.54-1.9c1.3-1.27,2-3.65,2-7.16V431.41h-8.88Z"/><rect class="cls-2" x="713.52" y="431.41" width="8.91" height="38.3"/><polygon class="cls-2" points="765.91 459.09 750.4 431.41 740.22 431.41 762.36 469.71 768.52 469.71 789.57 431.41 780.69 431.41 765.91 459.09"/><rect class="cls-2" x="807.39" y="431.41" width="8.91" height="38.3"/><path class="cls-2" d="M502.4,429.44c0,10.13-10.76,20.9-20.89,20.9,10.13,0,20.89,10.76,20.89,20.89,0-10.13,10.77-20.89,20.9-20.89C513.17,450.34,502.4,439.57,502.4,429.44Z"/></g></g></svg>