<svg xmlns="http://www.w3.org/2000/svg" viewBox="0 0 717.12 360.51"><defs><style>.cls-1{fill:none;}.cls-2{fill:#231f20;}</style></defs><g id="Layer_2" data-name="Layer 2"><g id="Layer_1-2" data-name="Layer 1"><polygon class="cls-1" points="125.53 151.27 61.39 119.8 61.63 120.43 66.06 149.15 125.53 151.27"/><polygon class="cls-1" points="64.94 149.37 61.89 129.53 43.58 159.54 64.94 149.37"/><polygon class="cls-1" points="127.78 151.11 137.5 107.91 62.98 119.3 127.78 151.11"/><polygon class="cls-1" points="268.6 81.92 147.72 106.19 221.95 117.79 268.6 81.92"/><polygon class="cls-1" points="319.47 133.81 279.99 80.99 270.13 82.19 223.5 118.04 319.47 133.81"/><polygon class="cls-1" points="219.79 118.61 144.48 106.84 142.34 107.27 141.95 107.35 141.56 107.36 138.78 107.43 128.97 151.05 219.79 118.61"/><polygon class="cls-1" points="63.25 118.11 131.91 107.61 75.03 109.04 74.43 109.05 74.73 109.45 63.25 118.11"/><polygon class="cls-1" points="36.44 113.54 17.77 134.88 41.33 159.21 36.44 113.54"/><polygon class="cls-1" points="17.43 136.19 17.43 156.22 16.61 157.4 6.95 171.26 16.1 175.26 41.18 160.74 17.43 136.19"/><polygon class="cls-1" points="17.41 175.83 31.16 181.83 31.27 181.8 40.76 162.31 17.41 175.83"/><polygon class="cls-1" points="61.03 118.34 73.39 109.03 72.19 108.14 51.11 92.54 60.8 118.23 61.03 118.34"/><polygon class="cls-1" points="49.41 91.28 48.75 90.8 40.63 108.33 59.31 117.5 49.41 91.28"/><polygon class="cls-1" points="61.62 127.78 60.53 120.72 59.91 119.07 40.1 109.35 39.78 109.71 37.47 112.36 42.48 159.15 61.62 127.78"/><polygon class="cls-1" points="320.21 198.52 320.21 137.41 289.66 209.12 318.56 199.09 320.21 198.52"/><polygon class="cls-1" points="399.99 135.73 370.14 87.44 322.15 134.07 399.99 135.73"/><polygon class="cls-1" points="368.86 87.08 281.41 80.98 320.85 133.74 368.86 87.08"/><polygon class="cls-1" points="431.48 119.31 431.44 119.27 371.97 88.22 401.21 135.53 431.48 119.31"/><path class="cls-1" d="M508.74,224.66l30.37,29.5,0-.75,25.46.66a8.79,8.79,0,0,1,6.84-7.85l-16.76-41.5A7.11,7.11,0,1,1,551.06,191l-6.12-44.12.58-.08h0a10.45,10.45,0,0,1-8.87-5L503,160.31a7,7,0,0,1,.68,3,7.12,7.12,0,0,1-14.21.56l-15.59,0,1.28,1.56Z"/><polygon class="cls-1" points="465.77 161.12 432.22 120.21 402.36 136.21 465.77 161.12"/><polygon class="cls-1" points="355.24 231.84 384.75 204.82 382.35 200.68 381.65 199.47 327.13 203.98 354.87 231.47 355.24 231.84"/><polygon class="cls-1" points="321.35 136.03 321.35 198.25 323.28 200.17 326.06 202.92 381.01 198.37 380.94 198.25 380.97 198.21 321.35 136.03"/><polygon class="cls-1" points="217.12 163.59 221.45 119.24 130.58 151.69 217.12 163.59"/><polygon class="cls-1" points="284.74 210.83 288.2 209.63 319.78 135.49 218.91 164.47 282.46 211.62 284.74 210.83"/><polygon class="cls-1" points="32.72 181.45 54.75 176.06 42.23 161.9 32.72 181.45"/><polygon class="cls-1" points="222.62 119.06 218.28 163.46 318.19 134.76 222.62 119.06"/><polygon class="cls-1" points="309.22 256.51 287.55 225.12 282.61 270.03 309.22 256.51"/><polygon class="cls-1" points="351.25 234.94 351.65 234.72 320.21 203.56 320.18 203.54 320.06 203.42 286.24 215.16 313.34 254.42 351.25 234.94"/><polygon class="cls-1" points="129.44 152.69 173.42 213.1 184.05 219.29 187.13 220.15 216.74 164.69 129.44 152.69"/><polygon class="cls-1" points="504.76 226.92 471.41 168 470.42 166.78 483.17 229.44 485.45 233.41 485.49 233.48 488.09 235.87 505 227.33 504.76 226.92"/><polygon class="cls-1" points="450.45 175.07 481.45 226.75 469.35 167.27 450.45 175.07"/><polygon class="cls-1" points="392.26 184.31 429.14 184.31 441.77 171.67 443 170.45 401.39 137.32 392.26 184.31"/><polygon class="cls-1" points="467.25 162.93 404.34 138.21 443.81 169.63 445.92 167.52 448.94 172.55 449.85 174.08 469.68 165.89 467.25 162.93"/><polygon class="cls-1" points="356.05 232.64 359.29 235.86 358.58 236.23 409.02 249.08 410.17 248.74 385.33 205.84 356.05 232.64"/><polygon class="cls-1" points="322.15 135.21 381.61 197.22 382.47 195.9 388.62 186.4 389.97 184.31 391.14 184.31 400.31 136.84 322.15 135.21"/><polygon class="cls-1" points="589.99 282.1 562.55 272.6 579.36 292.05 583.3 293.35 590.37 295.25 591.09 282.36 590.75 282.36 589.99 282.1"/><polygon class="cls-1" points="43.02 161.07 56 175.75 57.05 175.49 57.51 175.38 57.98 175.36 59.4 175.31 64.76 150.72 43.02 161.07"/><polygon class="cls-1" points="505.82 228.2 488.99 236.69 532.36 276.53 533.52 276.91 543.9 265.19 505.82 228.2"/><polygon class="cls-1" points="592.24 282.34 591.52 295.09 629.82 288.35 622.24 281.82 592.24 282.34"/><polygon class="cls-1" points="546.38 267 545.42 266.67 544.72 265.99 534.7 277.3 577.24 291.35 560.4 271.85 546.38 267"/><polygon class="cls-1" points="353.79 238.77 331.09 250.78 392.08 254.03 406.86 249.71 357.08 237.03 353.79 238.77"/><polygon class="cls-1" points="107.26 174.54 170.96 211.66 128.12 152.83 107.26 174.54"/><polygon class="cls-1" points="67.73 150.35 106.3 173.89 126.88 152.47 67.73 150.35"/><polygon class="cls-1" points="279.05 212.81 281.15 212.08 217.82 165.09 188.26 220.46 202.5 224.42 281.08 215.74 279.05 212.81"/><polygon class="cls-1" points="318.59 257.4 329.63 272.3 333.59 271.14 388.76 255 329.12 251.83 318.59 257.4"/><polygon class="cls-1" points="60.58 175.27 103.8 173.71 65.96 150.61 60.58 175.27"/><polygon class="cls-1" points="281.82 216.81 205.47 225.24 233.79 233.11 234.71 233.36 235.44 233.96 235.53 234.02 282.12 217.24 281.82 216.81"/><polygon class="cls-1" points="345.02 322.5 346.14 323.41 347.73 324.7 347.82 326.51 366.33 326.51 340.75 291.38 345.11 322.49 345.02 322.5"/><polygon class="cls-1" points="329.81 276.73 300 286.13 343.81 321.53 339.32 289.41 332.62 280.21 329.81 276.73"/><polygon class="cls-1" points="348.92 348.41 365.87 327.65 347.88 327.65 348.92 348.41"/><polygon class="cls-1" points="282.79 218.22 236.57 234.87 281.35 271.05 286.56 223.68 282.79 218.22"/><polygon class="cls-1" points="327.35 272.97 328.46 272.64 317.57 257.94 315.77 258.89 312.18 260.8 312.15 260.76 299.29 285.15 329.31 275.67 327.35 272.97"/><polygon class="cls-1" points="309.87 257.46 282.03 271.61 298.24 284.7 311.42 259.7 309.87 257.46"/><path class="cls-2" d="M591.48,277.77l-43.6-15.09-8.35-8.12,25,.66a8.79,8.79,0,0,0,17.58-.4,8.68,8.68,0,0,0-1.24-4.44l21.88-11.46a3.55,3.55,0,1,0-.73-2.14,3.42,3.42,0,0,0,.2,1.12l-22,11.52a8.78,8.78,0,0,0-6.92-3.42c-.25,0-.49.06-.73.08l-16.86-41.76a7.06,7.06,0,0,0,2.52-10.76L573,179.38a4.69,4.69,0,0,0,3,1.07,4.78,4.78,0,1,0-3.77-1.89l-14.66,14.15a7.07,7.07,0,0,0-4.85-1.93c-.15,0-.29,0-.44,0l-6.12-44.11a10.43,10.43,0,0,0,4.86-19.35l14-19.85a6.23,6.23,0,1,0-.93-.67l-14.08,20A10.35,10.35,0,0,0,537,130.23L485.85,95.56a6.17,6.17,0,0,0,.2-1.5,6.12,6.12,0,1,0-.6,2.61l50.94,34.54a10.09,10.09,0,0,0-.3,9.6l-33.59,18.5a7.11,7.11,0,0,0-13,3.42H473l-38.62-47.09-15.67-8.17,3.95-30.95-1.13-.15-3.9,30.53L379.08,86.76a9.67,9.67,0,0,0,1.62.17,10.49,10.49,0,0,0,10.49-10.48,8,8,0,0,0-.11-1l46.69-12.29a4.93,4.93,0,0,0,2.34,3.18,5,5,0,0,0,3.79.5l6,15.18L451,81.6l-6-15.19a5,5,0,1,0-6.67-6.88,5.08,5.08,0,0,0-.65,2.48L391,74.29a10.48,10.48,0,0,0-6.23-7.52L399.89,11.6a6,6,0,1,0-1-.54L383.63,66.43a10.12,10.12,0,0,0-10.52,2.82l-9.81-8.47a4.71,4.71,0,0,0,.33-.45,6.15,6.15,0,1,0-1.07,1.32l9.82,8.49a10.35,10.35,0,0,0,.75,13.52l-1.92-1-39-2.72L310,57.68a5.21,5.21,0,1,0-.47.34l-.4.4,21.34,21.4L275.06,76,216.57,87.7l14.07-12.82a7,7,0,0,0,7.56.35l-.49.27,3.65,6.59,1-.56L238.71,75l-.5.27A7.05,7.05,0,0,0,241.42,67l18.52-1.67a6.69,6.69,0,0,0,.41.91,5.89,5.89,0,1,0-.7-2L241,65.92c-.06-.12-.09-.24-.16-.36a7.05,7.05,0,0,0-5.47-3.49l.89-46A4.2,4.2,0,1,0,232.09,14a4.21,4.21,0,0,0,3,2l-.88,46a7,7,0,0,0-6.4,5.53l-23.92-5.44a3.42,3.42,0,1,0-.25,1.12l24,5.46a6.8,6.8,0,0,0,2.13,5.4l-15.36,14-72.95,14.65-66.53,1.67L47,83.78,36.34,106.7,12.86,133.53v21.25L0,173.23l30.75,13.42,27.39-6.71h.25l1.18-.05,45-1.62,77.71,45.28,50.32,14L343.26,327l1.68,33.54,26.83-32.86h.52l-.26-.31.3-.37-37.45-51.43,82.18-24-30.75-53.11,6.15-9.51H431l14-14,36.9,61.5,25.48,23.41-12.88,15.4a6.09,6.09,0,0,0-9.61,2l-20.2-7.12a3.77,3.77,0,0,0,.08-.76,4,4,0,1,0-.47,1.84l20.21,7.12a6,6,0,0,0-.2,1.48,6.13,6.13,0,0,0,3.7,5.63l-22.3,52.28a3.52,3.52,0,0,0-1-.14,3.94,3.94,0,1,0,2,.58l22.34-52.37a6,6,0,0,0,1.34.16,6.11,6.11,0,0,0,3.06-.85L505.32,297a3,3,0,0,0-.58,1.7,3.07,3.07,0,1,0,3.07-3.07,3,3,0,0,0-1.68.57l-11.67-11.8a6.15,6.15,0,0,0,2.05-3.8l17.54-3.32-.22-1.13-17.28,3.28a6,6,0,0,0-1.25-3.37l12.93-15.47,21.76,20,59.26,19.56,50.87-8.94-16.21-14Zm-102-113.9a7.12,7.12,0,0,0,14.21-.56,7,7,0,0,0-.68-3l33.6-18.49a10.45,10.45,0,0,0,8.87,5h0l-.58.08L551.06,191a7.12,7.12,0,1,0,3.61,13.75l16.76,41.5a8.79,8.79,0,0,0-6.84,7.85l-25.46-.66,0,.75-30.37-29.5L475.2,165.4l-1.28-1.56Zm-23.74-2.75L402.36,136.2l29.86-16Zm-34.33-41.85,0,0-30.27,16.22L372,88.22ZM400,135.73l-77.84-1.66,48-46.63ZM368.86,87.08l-48,46.66L281.41,81ZM381,198.37l-54.95,4.55-2.78-2.75-1.93-1.92V136L381,198.21l0,0Zm-94.77,16.79,33.82-11.74.12.12,0,0,31.44,31.16-.4.21-37.91,19.49Zm23,41.35L282.61,270l4.94-44.91Zm-86.6-137.45,95.57,15.7-99.91,28.69Zm-5.5,44.53-86.54-11.9,90.87-32.45Zm102.66-28.1L288.2,209.63l-3.46,1.2-2.28.79L218.9,164.47Zm.43,1.92v61.11l-1.65.57-28.9,10ZM327.13,204l54.52-4.51.7,1.21,2.4,4.14-29.51,27-.37-.37ZM280,81l39.48,52.82L223.5,118l46.63-35.85Zm-11.39.93L222,117.79l-74.23-11.6Zm-127,25.44H142l.39-.08,2.14-.42,75.31,11.76L129,151.05l9.82-43.62Zm-13.77,43.75L63,119.3l74.53-11.39ZM61.63,120.43l-.24-.63,64.14,31.47-59.47-2.12Zm3.31,28.94L43.58,159.54l18.31-30ZM75,109l56.88-1.43L63.25,118.1l11.48-8.65-.3-.4Zm-2.84-.9,1.2.89L61,118.34l-.23-.11L51.11,92.54ZM48.75,90.8l.66.48,9.91,26.22-18.69-9.17Zm-9,18.91.32-.36,19.81,9.72.62,1.65,1.09,7.06L42.48,159.15l-5-46.79Zm-3.34,3.83,4.89,45.67L17.77,134.88ZM7,171.27l9.66-13.87.83-1.18v-20l23.74,24.55L16.1,175.26Zm24.21,10.56-13.75-6,23.34-13.51L31.27,181.8Zm1.56-.38,9.51-19.55,12.52,14.16Zm26.68-6.14-1.42.05-.47,0-.46.11-1,.26L43,161.07l21.74-10.35Zm1.18,0L66,150.61l37.84,23.1Zm7.15-24.92,59.15,2.12L106.3,173.89Zm39.53,24.19,20.86-21.71L171,211.66Zm76.79,44.75-10.63-6.19-44-60.41,87.3,12-29.61,55.46Zm4.21,1.17,29.56-55.37,63.33,47-2.1.73,2,2.93-78.58,8.68ZM235.44,234l-.73-.6-.92-.25-28.32-7.87,76.35-8.43.3.43L235.52,234Zm1.13.91,46.22-16.65,3.77,5.46-5.21,47.37ZM282,271.61l27.84-14.15,1.55,2.24-13.18,25Zm30.12-10.85,0,0,3.59-1.9,1.8-1,10.89,14.7-1.11.33,2,2.7-30,9.48Zm36.77,87.65-1-20.76h18Zm17.42-21.9H347.82l-.09-1.81-1.59-1.29L345,322.5h.09l-4.36-31.11Zm-27-37.1,4.49,32.12L300,286.13l29.81-9.4,2.81,3.48Zm-5.73-18.27-4,1.16-11-14.9,10.53-5.57L388.76,255ZM392.08,254l-61-3.24,22.7-12,3.29-1.74,49.78,12.68Zm18.09-5.29-1.15.34-50.44-12.85.71-.37-3.24-3.22,29.29-26.8ZM390,184.3l-1.35,2.09-6.15,9.51-.86,1.32-59.46-62,78.16,1.63-9.16,47.46Zm51.8-12.63L429.14,184.3H392.26l9.13-47L443,170.45Zm7.16.88-3-5-2.11,2.11-39.47-31.42,62.92,24.72,2.42,3-19.83,8.19Zm1.52,2.52,18.9-7.8,12.1,59.48Zm35,58.41,0-.07-2.28-4-12.76-62.66,1,1.22,33.35,58.92.24.41-16.91,8.54Zm46.87,43L489,236.69l16.83-8.49,38.08,37-10.38,11.72Zm2.34.77,10-11.31.7.68,1,.33,14,4.85,16.84,19.5Zm55.66,17.95-7.06-1.9-3.94-1.3L562.55,272.6,590,282.1l.76.26h.34Zm1.16-.16.72-12.75,30-.52,7.58,6.53Z"/><path class="cls-2" d="M287,313.09a4.68,4.68,0,0,0-2.27.6L257.5,293.22a4.72,4.72,0,1,0-8.57-3.83l-51.74-10.84s0,0,0-.05A4.73,4.73,0,0,0,194,274l-2.35-14a6.09,6.09,0,0,0,5.48-5.26l14.6-2.76a3,3,0,1,0-.23-1.13l-14.32,2.72a6.12,6.12,0,0,0-12.23.35,6,6,0,0,0,.7,2.79L157.82,274.5a4.81,4.81,0,1,0,.93.77l27.49-17.54a6.11,6.11,0,0,0,4.82,2.39h0l-.58.1,2.28,13.58c-.11,0-.21,0-.32,0a4.74,4.74,0,1,0,4.57,5.92l51.68,10.78c0,.13,0,.26,0,.39a4.74,4.74,0,0,0,8.15,3.29l26.89,20.25a4.73,4.73,0,1,0,3.25-1.3Z"/><path class="cls-2" d="M171.1,64.89a4.79,4.79,0,1,0-6.54-1.76A4.8,4.8,0,0,0,171.1,64.89Z"/><path class="cls-2" d="M463.32,150.63l12.05-8.35a5.2,5.2,0,1,0-.64-.94l-12.06,8.35Z"/><path class="cls-2" d="M633.79,155.53a2.22,2.22,0,1,0,3-.82A2.21,2.21,0,0,0,633.79,155.53Z"/><path class="cls-2" d="M690,184.4a4.17,4.17,0,0,0,.08-.8,4.12,4.12,0,0,0-2.47-3.77c1.68-3.07,5.17-10.45,12.85-28a2.19,2.19,0,1,0-1.58-3.25,2.16,2.16,0,0,0,.55,2.76c-4.5,10.25-10.59,23.81-12.9,28.2a3.55,3.55,0,0,0-.57-.06,4.11,4.11,0,0,0-2.34.73l-6.85-11.84a2.24,2.24,0,0,0,.46-.51,2.46,2.46,0,1,0-3.36.9,2.41,2.41,0,0,0,1.92.21l7,12.06a3.94,3.94,0,0,0-.87,2l-31.12-4a3,3,0,0,0-2.59-1.55,3.06,3.06,0,0,0-3.06,3.06h0l-.2-.54-11.2,4.34a5.87,5.87,0,0,0-6-6.86l-.17,0L623.62,152a3.81,3.81,0,0,0,1.15-1l8.73,5,.57-1-8.72-5a4.1,4.1,0,0,0,.12-2.74L655.71,128a2.79,2.79,0,0,0,.51.46,2.75,2.75,0,1,0-1.14-1.41L625,146.21a4.16,4.16,0,0,0-1.38-1.32,4,4,0,0,0-3.06-.42l-3.15-7a2.66,2.66,0,1,0-1,.45l3.14,6.95a4.11,4.11,0,0,0,3.06,7.54l3.8,25.19A6.09,6.09,0,0,0,621.6,183L607,180.73l-.17,1.13,14.65,2.3.09-.57h0a6.09,6.09,0,0,0,3,5.24l-5.63,15.94,1.07.38,5.59-15.83a6.12,6.12,0,0,0,2.06.38,5.88,5.88,0,0,0,1.52-.22l2.77,17.24,1.13-.18-2.8-17.45a6.11,6.11,0,0,0,3.09-3.4l11.84-4.58a3,3,0,0,0,2.94,2.48,3.06,3.06,0,0,0,3.05-3c0-.11-.05-.2-.06-.31l30.59,3.93.07-.57a4.12,4.12,0,0,0,1.2,2.91l-5.85,12.83,1,.48,5.75-12.63a4,4,0,0,0,2,.53,4.11,4.11,0,0,0,3.65-2.24L716.74,195l.38-1.08Z"/></g></g></svg>