<?xml version="1.0" encoding="utf-8"?>
<svg version="1.1"
    xmlns="http://www.w3.org/2000/svg" width="122.88" height="113.05" viewBox='0 0 122.88 113.05'>
    <path d="M0 100.07h14.72V1.57c0-.86.71-1.57 1.57-1.57h49.86c.86 0 1.57.71 1.57 1.57V38.5h44.12c.86 0 1.57.71 1.57 1.57v59.99h9.47v12.99H0v-12.98zm27.32-85.25h10.2c.31 0 .57.26.57.57v12.36c0 .31-.26.57-.57.57h-10.2c-.31 0-.57-.26-.57-.57V15.39c0-.31.26-.57.57-.57zM44.6 76.3h10.2c.31 0 .57.26.57.57v12.36c0 .31-.26.57-.57.57H44.6c-.31 0-.57-.26-.57-.57V76.87c0-.32.26-.57.57-.57zm-17.28 0h10.2c.31 0 .57.26.57.57v12.36c0 .31-.26.57-.57.57h-10.2c-.31 0-.57-.26-.57-.57V76.87c0-.32.26-.57.57-.57zM44.6 55.8h10.2c.31 0 .57.26.57.57v12.36c0 .31-.26.57-.57.57H44.6c-.31 0-.57-.26-.57-.57V56.38c0-.32.26-.58.57-.58zm-17.28 0h10.2c.31 0 .57.26.57.57v12.36c0 .31-.26.57-.57.57h-10.2c-.31 0-.57-.26-.57-.57V56.38c0-.32.26-.58.57-.58zM44.6 35.31h10.2c.31 0 .57.26.57.57v12.36c0 .31-.26.57-.57.57H44.6c-.31 0-.57-.26-.57-.57V35.88c0-.31.26-.57.57-.57zm-17.28 0h10.2c.31 0 .57.26.57.57v12.36c0 .31-.26.57-.57.57h-10.2c-.31 0-.57-.26-.57-.57V35.88c0-.31.26-.57.57-.57zM44.6 14.82h10.2c.31 0 .57.26.57.57v12.36c0 .31-.26.57-.57.57H44.6c-.31 0-.57-.26-.57-.57V15.39c0-.31.26-.57.57-.57zm-21.43-7.5h35.92c.62 0 1.13.61 1.13 1.35v85.87c0 .74-.51 1.35-1.13 1.35H23.17c-.62 0-1.13-.61-1.13-1.35V8.67c0-.74.51-1.35 1.13-1.35zm49.44 46.11h10.2c.31 0 .57.26.57.57v12.36c0 .31-.26.57-.57.57h-10.2c-.31 0-.57-.26-.57-.57V54c0-.31.26-.57.57-.57zM89.89 76.3h10.2c.31 0 .57.26.57.57v12.36c0 .31-.26.57-.57.57h-10.2c-.31 0-.57-.26-.57-.57V76.87c0-.32.26-.57.57-.57zm-17.28 0h10.2c.31 0 .57.26.57.57v12.36c0 .31-.26.57-.57.57h-10.2c-.31 0-.57-.26-.57-.57V76.87c0-.32.26-.57.57-.57zm17.28-22.87h10.2c.31 0 .57.26.57.57v12.36c0 .31-.26.57-.57.57h-10.2c-.31 0-.57-.26-.57-.57V54c0-.31.26-.57.57-.57zm-21.03-7.61h35.92c.62 0 1.13.61 1.13 1.35v47.37c0 .74-.51 1.35-1.13 1.35H68.86c-.62 0-1.13-.61-1.13-1.35V47.17c0-.74.51-1.35 1.13-1.35z" fill-rule="evenodd" fill="white" clip-rule="evenodd" />
</svg>

