<?xml version="1.0" encoding="utf-8"?>
<svg version="1.1"
    xmlns="http://www.w3.org/2000/svg" width="103.12" height="122.88" viewBox='0 0 103.12 122.88'>
     <path
        d="M72.17 35.82l16.44.06a16.452 16.452 0 01-7.3 13.61l-9.14-13.67zM1.18 122.01A2.017 2.017 0 010 120.18V2a2 2 0 012-2h99.12a2 2 0 012 2v107.73c0 .11-.01.21-.02.31-.28 3.93-1.56 6.99-3.86 9.18-2.3 2.18-5.53 3.4-9.72 3.64-.09.01-.17.02-.26.02H2.83c-.68 0-1.29-.35-1.65-.87zM35.5 34.9h5.01c.27 0 .48.22.48.48v9.85c0 .27-.22.48-.48.48H35.5a.48.48 0 01-.48-.48v-9.85c0-.26.21-.48.48-.48zm-18.65-6.03h5.01c.27 0 .48.22.48.48v15.89c0 .27-.22.48-.48.48h-5.01a.48.48 0 01-.48-.48V29.35c-.01-.26.21-.48.48-.48zm9.33-3.39h5.01c.27 0 .48.22.48.48v19.28c0 .27-.22.48-.48.48h-5.01a.48.48 0 01-.48-.48V25.96c-.01-.27.21-.48.48-.48zm72.95 84.2V3.99H3.99v114.9H89.29c3.21-.18 5.61-1.04 7.2-2.55 1.57-1.49 2.44-3.72 2.64-6.66zm-82.31-3.04c-1.09 0-1.98-.89-1.98-2 0-1.1.88-1.99 1.98-1.99h70.5c1.09 0 1.98.89 1.98 1.99s-.88 2-1.98 2h-70.5zm.32-14.56c-1.09 0-1.98-.89-1.98-2 0-1.1.88-2 1.98-2h70c1.09 0 1.98.89 1.98 2 0 1.1-.88 2-1.98 2h-70zm-.32-14.56c-1.09 0-1.98-.89-1.98-2 0-1.1.88-1.99 1.98-1.99h30.13c1.09 0 1.98.89 1.98 1.99s-.88 2-1.98 2H16.82zm37.82 0c-1.09 0-1.98-.89-1.98-2 0-1.1.88-1.99 1.98-1.99h32.5c1.09 0 1.98.89 1.98 1.99s-.88 2-1.98 2h-32.5zM16.82 64.53c-1.09 0-1.98-.89-1.98-2 0-1.1.88-2 1.98-2h24.84c1.09 0 1.98.89 1.98 2 0 1.1-.88 2-1.98 2H16.82zm0-50.62c-1.09 0-1.98-.89-1.98-2s.88-2 1.98-2h14.84c1.09 0 1.98.89 1.98 2s-.88 2-1.98 2H16.82zm53.67 18.65l-.88-17.57c-.02-.35.25-.64.6-.66.1-.01.22-.01.35-.01.11 0 .23-.01.35-.01a18.23 18.23 0 0112.56 4.82c3.31 3.05 5.5 7.31 5.84 12.13.02.35-.24.65-.58.67l-17.58 1.26a.628.628 0 01-.67-.58c.01-.02.01-.04.01-.05zm.41-16.99l.82 16.32 16.3-1.16c-.46-4.23-2.45-7.96-5.38-10.66a16.939 16.939 0 00-11.7-4.49l-.04-.01zm-2.38 19.49l8.81 15.26a17.595 17.595 0 01-8.81 2.36c-9.73 0-17.62-7.89-17.62-17.62 0-8.74 6.41-16.17 15.06-17.43l2.56 17.43z"
        fill-rule="evenodd"
        fill="white"
        clip-rule="evenodd"
      />
</svg>

