<?xml version="1.0" standalone="no"?>
<!DOCTYPE svg PUBLIC "-//W3C//DTD SVG 20010904//EN"
 "http://www.w3.org/TR/2001/REC-SVG-20010904/DTD/svg10.dtd">
<svg version="1.0" xmlns="http://www.w3.org/2000/svg"
 width="650.000000pt" height="650.000000pt" viewBox="0 0 650.000000 650.000000"
 preserveAspectRatio="xMidYMid meet">
<metadata>
Created by potrace 1.11, written by Peter Selinger 2001-2013
</metadata>
<g transform="translate(0.000000,650.000000) scale(0.100000,-0.100000)"
fill="#000000" stroke="none">
<path d="M2975 5959 c-284 -559 -290 -569 -356 -569 -14 0 -140 67 -300 159
-150 87 -275 158 -276 157 -1 -1 72 -382 162 -846 91 -465 165 -855 165 -868
0 -57 -48 -102 -111 -102 -40 0 -60 20 -434 424 -170 184 -312 335 -315 335
-3 0 -45 -95 -95 -212 -84 -197 -93 -213 -126 -231 l-36 -19 -449 95 c-247 53
-450 94 -452 93 -2 -2 65 -211 147 -465 83 -255 151 -474 151 -487 0 -60 -21
-76 -209 -164 -99 -46 -181 -87 -181 -91 0 -3 330 -273 733 -599 402 -325 749
-608 769 -627 20 -19 40 -47 43 -62 4 -19 -22 -103 -91 -294 -53 -147 -94
-269 -91 -272 2 -3 313 49 690 115 377 67 700 121 717 121 56 0 117 -45 139
-102 8 -20 1 -207 -24 -680 -19 -359 -35 -679 -35 -710 l0 -58 140 0 140 0 0
53 c0 28 -16 348 -35 710 -25 476 -32 665 -24 685 22 57 83 102 140 102 17 0
340 -54 717 -120 376 -67 687 -119 689 -116 3 3 -38 125 -91 272 -72 199 -95
275 -91 296 8 36 5 34 838 707 389 314 707 575 707 579 0 4 -81 45 -181 91
-188 88 -209 104 -209 164 0 13 67 232 150 485 82 253 150 464 150 467 0 4 -6
5 -13 2 -8 -3 -211 -47 -452 -98 l-438 -92 -36 19 c-33 18 -43 34 -126 231
-49 117 -92 212 -95 212 -3 0 -144 -151 -315 -335 -374 -404 -394 -424 -434
-424 -62 0 -111 44 -111 100 0 17 305 1609 325 1697 4 19 -25 5 -182 -86 -347
-200 -367 -211 -393 -211 -65 0 -71 10 -355 569 -148 292 -272 531 -275 531
-3 0 -126 -239 -275 -531z"/>
</g>
</svg>
