<?xml version="1.0" standalone="no"?>
<!DOCTYPE svg PUBLIC "-//W3C//DTD SVG 20010904//EN"
 "http://www.w3.org/TR/2001/REC-SVG-20010904/DTD/svg10.dtd">
<svg version="1.0" xmlns="http://www.w3.org/2000/svg"
 width="1455.000000pt" height="1455.000000pt" viewBox="0 0 1455.000000 1455.000000"
 preserveAspectRatio="xMidYMid meet">
<metadata>
Created by potrace 1.11, written by Peter Selinger 2001-2013
</metadata>
<g transform="translate(0.000000,1455.000000) scale(0.100000,-0.100000)"
fill="#000000" stroke="none">
<path d="M2338 11585 c-46 -46 -43 -128 6 -174 36 -34 109 -40 146 -12 l29 21
533 -324 533 -325 0 -49 0 -49 -138 -92 c-106 -71 -142 -90 -152 -81 -48 40
-127 30 -170 -21 -47 -57 -26 -157 40 -185 44 -18 69 -18 111 2 45 22 68 65
62 118 l-5 42 139 92 c136 91 139 92 163 76 14 -9 25 -23 25 -31 0 -9 -32
-233 -70 -499 -38 -266 -70 -485 -70 -487 0 -3 -22 -7 -49 -9 -67 -7 -136 -49
-171 -105 -16 -25 -31 -50 -33 -56 -2 -7 -64 2 -170 23 -160 31 -167 34 -167
57 0 38 -25 87 -59 116 -80 67 -201 52 -253 -31 -11 -17 -29 -34 -41 -37 -12
-3 -236 -43 -497 -91 -261 -47 -482 -87 -491 -90 -13 -4 -17 5 -21 41 -5 39
-15 60 -52 109 -5 7 34 82 106 201 l114 190 49 3 c62 4 101 32 116 81 14 47 0
97 -37 132 -21 19 -36 24 -81 24 -49 0 -58 -3 -83 -32 -41 -45 -48 -92 -21
-143 l21 -41 -112 -189 -113 -188 -65 3 -65 2 -242 523 -241 522 24 35 c28 41
31 91 9 133 -22 43 -53 60 -108 60 -42 0 -54 -5 -83 -34 -29 -29 -34 -41 -34
-83 0 -75 34 -111 115 -122 l39 -6 242 -525 242 -525 -28 -30 c-34 -36 -50
-74 -50 -120 l0 -34 -467 -154 -468 -153 -24 28 c-48 58 -128 75 -197 42 -56
-27 -74 -61 -74 -144 0 -68 2 -74 33 -105 58 -58 148 -66 216 -19 28 20 60 88
61 129 l0 30 465 153 466 153 26 -31 c30 -37 70 -59 111 -62 28 -2 37 -15 123
-168 51 -91 101 -178 110 -195 l17 -30 -86 -187 -87 -187 -220 -253 c-121
-139 -232 -266 -247 -283 -25 -30 -30 -49 -64 -295 l-37 -264 -91 -141 c-51
-77 -95 -145 -99 -152 -5 -7 98 -65 309 -173 l316 -162 302 81 302 81 527 0
528 0 877 -506 877 -507 486 -131 485 -131 1222 -970 1222 -970 0 -377 c0
-208 3 -378 8 -378 4 1 111 134 237 297 127 164 260 336 297 384 l68 87 -405
559 -404 558 914 260 c503 143 915 264 915 268 0 5 -153 267 -340 584 l-340
574 61 89 c58 84 64 90 103 94 23 3 205 15 406 27 l365 22 162 118 c89 66 164
119 167 119 2 0 181 -299 397 -665 l394 -666 267 -247 c147 -136 268 -250 268
-253 0 -4 -66 -68 -146 -143 -139 -131 -146 -136 -167 -121 -45 32 -166 7
-183 -38 -4 -11 -55 5 -209 62 -205 76 -205 76 -205 106 0 121 -187 124 -206
3 -16 -96 109 -166 172 -97 9 11 21 19 27 19 5 0 97 -32 203 -72 190 -70 194
-72 194 -101 0 -33 13 -62 45 -97 l23 -25 -242 -575 c-221 -525 -244 -575
-266 -578 -67 -10 -93 -90 -44 -139 65 -65 173 27 120 103 -13 18 8 73 227
597 l242 577 30 1 c17 0 39 4 50 8 16 7 35 -12 123 -121 l103 -129 -11 -35
c-14 -42 -6 -81 22 -111 44 -48 135 -37 163 18 43 81 -17 170 -106 157 -29 -5
-36 2 -135 124 l-104 130 16 31 c12 22 15 47 11 89 -5 57 -5 58 33 90 21 18
88 79 147 135 l109 102 235 -218 234 -218 625 -201 c344 -111 639 -202 655
-202 17 1 264 42 550 93 482 85 520 94 520 112 0 13 -55 72 -148 163 l-149
142 -351 0 -352 0 -470 159 -470 158 -103 98 c-56 54 -101 99 -100 100 2 1 91
-4 198 -11 107 -7 204 -13 216 -13 15 -1 26 -15 44 -58 46 -112 143 -170 264
-161 72 6 112 24 160 74 49 51 69 107 64 188 l-3 66 148 81 148 81 22 -20 c73
-65 200 -49 263 33 22 30 29 50 32 101 4 54 1 70 -21 106 -61 105 -222 121
-299 30 -46 -55 -57 -118 -33 -197 5 -18 -12 -31 -136 -100 -92 -50 -144 -74
-147 -66 -9 26 -56 73 -100 99 -38 22 -61 27 -121 29 l-75 2 -142 393 -141
393 37 36 c56 55 66 114 35 215 -5 17 22 46 156 170 89 82 167 147 173 145 6
-3 30 -6 53 -9 37 -3 47 0 73 26 65 65 23 182 -65 182 -77 0 -120 -48 -113
-129 l3 -41 -160 -149 c-156 -145 -160 -148 -183 -133 -13 9 -40 18 -60 21
l-36 6 -68 450 c-37 248 -68 460 -68 471 0 15 8 24 27 29 37 9 97 54 123 92
67 99 66 207 -4 312 l-34 50 128 173 c82 111 133 171 142 168 7 -3 45 -5 84
-5 61 0 75 4 106 27 51 39 71 87 66 162 -4 74 -31 117 -88 146 -124 63 -270
-23 -270 -160 0 -46 19 -98 43 -118 14 -12 1 -33 -110 -185 -69 -95 -129 -175
-132 -180 -4 -4 -24 -1 -44 8 -83 34 -214 10 -279 -52 -14 -14 -31 -24 -36
-22 -6 2 -229 150 -495 329 l-485 325 5 62 c8 82 -20 142 -81 178 -74 43 -162
32 -224 -28 -102 -98 -44 -276 100 -302 48 -9 89 1 134 31 l37 25 493 -328
c467 -310 494 -329 488 -353 -21 -82 -21 -152 0 -210 8 -22 -605 -392 -619
-374 -41 50 -148 70 -218 40 -38 -16 -94 -76 -103 -111 -4 -18 -12 -24 -23
-21 -9 3 -89 8 -177 12 -89 3 -166 9 -171 13 -16 10 -163 199 -162 208 0 4 45
43 100 86 95 74 101 77 122 62 12 -9 43 -15 73 -15 57 0 94 22 119 70 48 93
-36 210 -139 195 -82 -12 -122 -68 -114 -156 l5 -50 -99 -81 c-55 -44 -103
-76 -107 -71 -3 6 -139 178 -301 383 l-294 372 -165 79 c-90 44 -166 81 -168
83 -4 4 11 251 23 374 5 58 7 62 30 62 30 0 80 24 112 54 59 52 79 156 47 233
-8 19 -15 36 -15 38 0 1 51 47 113 102 l112 100 35 -18 c50 -27 128 -25 171 4
55 37 79 81 79 147 0 63 -22 106 -73 144 -43 32 -150 30 -196 -3 -61 -44 -89
-147 -56 -211 l15 -28 -116 -103 -115 -102 -41 23 c-26 15 -59 23 -90 24 -47
1 -49 2 -58 36 -5 19 -81 283 -169 585 -107 369 -155 551 -148 554 29 10 86
80 96 118 23 84 -18 181 -92 216 -45 22 -129 22 -174 1 -69 -34 -112 -125 -94
-205 18 -79 70 -126 158 -144 l58 -11 168 -580 c109 -379 163 -580 156 -583
-25 -8 -90 -75 -95 -97 -3 -13 -7 -24 -9 -24 -3 0 -895 214 -956 230 -45 11
-47 13 -51 55 -10 80 -72 135 -156 135 -44 0 -93 -28 -126 -73 -32 -43 -28
-124 7 -170 l27 -36 -56 -138 c-31 -76 -59 -141 -62 -145 -4 -4 -84 -1 -179 6
-163 12 -173 14 -191 37 -11 13 -101 123 -200 243 -165 200 -180 221 -171 244
12 31 -3 82 -32 108 -31 28 -100 26 -133 -5 -33 -31 -41 -70 -22 -115 20 -47
73 -73 119 -57 17 6 31 10 33 9 20 -22 362 -443 360 -445 -1 -1 -244 16 -540
37 -296 22 -564 40 -595 41 -35 1 -179 -24 -393 -68 l-337 -70 -50 76 c-50 75
-50 76 -31 96 23 24 50 86 50 115 0 11 1 20 3 21 50 13 403 53 406 47 10 -29
68 -79 100 -89 73 -22 159 26 177 97 21 84 -36 172 -118 181 -80 9 -158 -47
-158 -114 0 -27 5 -26 -205 -53 -88 -11 -171 -23 -185 -26 -22 -4 -28 0 -38
30 -16 42 -73 95 -113 103 -16 3 -31 9 -33 12 -3 4 2 196 9 426 8 231 15 432
15 447 0 19 7 29 23 33 61 19 102 94 87 160 -15 68 -65 100 -144 92 -92 -9
-138 -95 -97 -181 15 -30 33 -49 56 -61 42 -19 39 38 21 -514 -14 -410 -14
-410 -57 -411 -28 0 -95 -56 -113 -94 -14 -29 -21 -35 -39 -31 -12 3 -96 18
-186 35 -91 17 -165 31 -166 33 -1 1 -8 20 -16 41 -19 54 -59 81 -115 80 -57
-1 -95 -28 -113 -81 -13 -35 -13 -46 0 -79 17 -45 69 -84 111 -84 38 0 81 23
105 55 l19 26 169 -31 c218 -40 203 -35 211 -78 4 -20 13 -50 21 -66 l15 -29
-165 -165 -165 -165 -673 -138 c-371 -76 -685 -139 -698 -141 -22 -3 -28 12
-121 272 l-98 275 30 34 c39 44 58 90 58 140 l0 39 93 16 c50 9 153 27 227 40
97 17 136 21 139 13 2 -7 17 -24 32 -39 23 -23 36 -28 79 -28 46 0 56 4 86 34
29 29 34 41 34 83 0 55 -17 86 -60 108 -73 38 -156 0 -178 -79 l-8 -30 -215
-37 c-117 -21 -218 -38 -224 -38 -5 -1 -18 19 -28 44 -20 49 -61 88 -117 113
-19 9 -36 17 -38 18 -2 1 29 227 69 503 68 465 74 501 93 507 66 18 96 55 96
119 0 38 -24 95 -40 95 -6 0 17 54 50 120 60 120 60 120 96 120 26 0 43 8 65
29 64 65 20 171 -71 171 -52 0 -76 -13 -95 -50 -20 -39 -19 -69 5 -108 l20
-32 -57 -113 c-50 -102 -58 -113 -79 -109 -13 2 -43 -5 -67 -17 l-44 -21 -530
322 c-512 311 -531 324 -526 350 7 36 -14 95 -40 113 -13 9 -44 15 -83 15 -52
0 -65 -4 -86 -25z m252 -2092 c0 -102 110 -180 213 -152 39 10 109 67 118 97
4 11 39 7 172 -19 l167 -33 0 -41 c0 -73 57 -164 127 -203 13 -8 11 -39 -22
-288 -20 -153 -37 -280 -38 -281 -1 -1 -160 -6 -352 -12 -193 -6 -418 -13
-500 -17 l-150 -6 -305 222 c-167 122 -309 224 -316 227 -6 2 -20 -16 -30 -41
-11 -25 -22 -46 -25 -46 -7 0 -189 324 -189 338 0 6 9 13 20 17 11 3 35 25 55
47 l35 42 503 92 c276 51 505 93 510 93 4 1 7 -16 7 -36z m6486 -188 c263 -64
486 -118 495 -121 11 -3 19 -21 22 -49 12 -88 60 -150 137 -176 l30 -11 -5
-77 c-3 -42 -10 -131 -14 -199 -5 -68 -11 -125 -14 -128 -2 -3 -231 107 -508
243 l-504 247 -213 17 c-117 9 -215 19 -218 21 -2 3 19 64 48 137 l53 132 32
-6 c51 -9 108 11 140 49 15 19 31 35 34 35 3 1 221 -51 485 -114z m-3436 -132
c36 -17 108 -23 152 -11 24 7 29 3 68 -58 23 -36 40 -67 38 -69 -6 -7 -550
-116 -560 -113 -8 3 254 268 265 268 2 0 19 -7 37 -17z m-1927 -300 l95 -268
-46 -11 c-73 -17 -392 -26 -392 -11 0 7 16 129 35 271 19 142 35 261 35 262 0
2 28 4 63 5 34 0 71 4 82 9 11 5 23 9 26 9 4 1 49 -119 102 -266z m8637 -1222
c25 -11 63 -21 85 -21 l41 0 67 -452 c37 -249 67 -463 67 -475 0 -14 -6 -23
-15 -23 -25 0 -83 -59 -96 -97 -6 -19 -9 -58 -7 -85 9 -85 66 -140 155 -148
l56 -5 143 -395 c125 -345 141 -396 127 -405 -72 -45 -133 -136 -133 -197 0
-20 -5 -28 -17 -28 -10 0 -119 7 -242 15 l-223 14 -77 73 c-42 40 -175 170
-297 288 l-221 215 -388 655 c-214 360 -400 670 -414 689 l-26 34 115 -6 c63
-4 136 -7 162 -7 44 0 48 -2 54 -27 16 -74 68 -140 127 -162 132 -50 277 74
251 213 -5 22 -8 45 -9 49 0 5 135 91 300 191 l300 183 35 -33 c19 -18 55 -42
80 -53z m-4365 -1606 c173 -181 315 -332 315 -336 0 -4 -766 -313 -801 -322
-7 -2 -558 708 -562 725 -2 11 699 269 720 265 7 -1 154 -150 328 -332z"/>
<path d="M4725 5486 c-70 -31 -103 -103 -91 -195 l6 -49 -236 -170 c-222 -161
-238 -170 -258 -157 -11 8 -42 15 -69 15 -42 0 -54 -5 -83 -34 -30 -30 -34
-40 -34 -86 0 -46 4 -56 34 -86 30 -30 40 -34 86 -34 46 0 56 4 87 35 32 32
35 38 31 89 l-3 53 237 172 236 171 44 -25 c24 -14 53 -25 65 -25 23 0 22 5
41 -152 l8 -67 -35 -23 c-51 -33 -71 -92 -51 -150 21 -61 69 -91 134 -85 41 4
55 11 83 40 l32 36 428 -100 c235 -55 449 -104 474 -110 45 -10 47 -12 58 -55
14 -56 46 -89 98 -103 41 -11 92 -3 119 20 16 13 1 23 385 -275 l205 -160 -1
-54 c0 -48 3 -57 33 -83 63 -57 159 -31 183 50 29 96 -73 171 -172 127 -11 -5
-98 57 -300 214 l-284 221 3 59 c4 68 -13 107 -61 135 -60 36 -165 13 -189
-40 -6 -14 -16 -25 -21 -25 -9 0 -901 205 -939 216 -12 4 -18 15 -18 34 0 38
-49 94 -92 106 -36 11 -33 2 -52 169 l-6 60 40 17 c41 17 76 62 87 111 6 31
14 33 121 41 69 5 73 4 82 -19 14 -36 49 -55 103 -55 40 0 53 5 78 29 41 42
41 107 0 153 -26 29 -35 33 -81 33 -46 0 -55 -4 -81 -33 -16 -18 -29 -39 -29
-47 0 -14 -29 -20 -137 -28 l-51 -4 -18 40 c-27 59 -74 90 -142 94 -34 2 -69
-2 -87 -11z"/>
</g>
</svg>
