<svg xmlns="http://www.w3.org/2000/svg" id="Layer_1" data-name="Layer 1" version="1.1" width="349.675" height="264.08"><defs id="defs27"><clipPath id="clip-path"><path class="cls-1" d="M386.49 310.56a3.31 3.31 0 104.75-2.77l-.65-.24a4.14 4.14 0 00-.6-.09h-.2a3.3 3.3 0 00-3.3 3.11m-56.61-12.15l-.63.29a4 4 0 00-2 3.21 3.9 3.9 0 00.56 2.27l-11.77 8.5a3 3 0 10.4.57l11.78-8.51a3.93 3.93 0 002.77 1.38h.36l.68 5.62a3 3 0 103.51 3.92l23.32 5.43a1.38 1.38 0 000 .2 3.25 3.25 0 003.05 3.44 3.2 3.2 0 002.51-1l14.17 11a2.51 2.51 0 00-.36 1.13 2.57 2.57 0 102.72-2.41 2.52 2.52 0 00-1.94.73l-14.16-11a3.33 3.33 0 00.49-1.5 3.24 3.24 0 00-6.29-1.26L335.74 315v-.16a3 3 0 00-2.83-3.18h-.19l-.67-5.61a4 4 0 003.16-3.66v-.19l4.83-.37a2.51 2.51 0 10-.07-.69l-4.81.37a4 4 0 00-3.68-3.33h-.23a4 4 0 00-1.39.25m86.79 1.8a3.3 3.3 0 003.1 3.5 3.25 3.25 0 001.72-.38l-3-5.87a3.27 3.27 0 00-1.83 2.75m1.83-2.75l.15-.07-.75-2.34-4.82-9.16a3.52 3.52 0 01-.68-.39zm-6.1-12l-1.31-2.58a3.38 3.38 0 001.31 2.58m-1.25-3.27l1.93 3.66a3.12 3.12 0 001.11.27 3.53 3.53 0 00.86-.08l2.85 9 4.16 7.9a3.22 3.22 0 001.2-2.34 3.11 3.11 0 00-.1-1l8.92-3.18a2.57 2.57 0 10-.29-1.34 2.19 2.19 0 00.06.68l-8.89 3.22a3.28 3.28 0 00-2.76-1.87 3.14 3.14 0 00-.87.07l-3.59-11.31a3.3 3.3 0 00-1.13-6.32h-.2a3.3 3.3 0 00-3.23 2.68m4-17.76a3.17 3.17 0 001.64.57 3.27 3.27 0 002.55-1zm-1.47-2.93a3.29 3.29 0 00.94 2.49l-.59-3.79a3.39 3.39 0 00-.35 1.3m6.58 0a2.17 2.17 0 010 .36 3.3 3.3 0 01-.94 2.13l43.06-4.28a6 6 0 01-.88-.72l-4.62-3.35zm-11.93-26.15a2.43 2.43 0 102.35 3.07l-.3-2a2.52 2.52 0 00-1.37-1l.57-4.18-.38-2.42zM336 226.76a2.61 2.61 0 00.57-.1zm73.56 4.57l.8 5.2a2.43 2.43 0 01.38 1.46 2.74 2.74 0 01-.08.5l3.34 21.75a3.29 3.29 0 016.13.64l35.94-5.74-45.31-32.81zm-72.3-5a3.22 3.22 0 01-.69.28l24.55-4.52a2.67 2.67 0 01-.56-.28zm23.86-4.24a3 3 0 00.95.21 3.17 3.17 0 002.29-.8zm48.06 6.77l.91-6.7a3.59 3.59 0 01-2.18-1.55zm-57.78-52.75a3 3 0 002.57 3.16l-.68 22a4.51 4.51 0 00-4.14 3.34l-9.44-1.76a2.87 2.87 0 10-.14.68l9.46 1.76v.21a4.45 4.45 0 001.07 3.17l-12.32 12.24a3.25 3.25 0 00-1.88-.75 3.302 3.302 0 00-.57 6.58l1.95-.38a3.28 3.28 0 001-5l12.31-12.24a4.44 4.44 0 002.67 1.09 4.54 4.54 0 002.43-.55l4.58 7a3.16 3.16 0 00.32 5.15l4.26-.83a3.14 3.14 0 00.61-1.68 3.19 3.19 0 00-3-3.37 3.24 3.24 0 00-1.62.35l-4.59-7a4.46 4.46 0 001.74-3.29 3.13 3.13 0 000-.53l10.12-1.38a3.28 3.28 0 10-.1-1 1.41 1.41 0 000 .29l-10.12 1.38a4.49 4.49 0 00-3.9-3.51l.68-22a3 3 0 00-.07-6h-.18a3 3 0 00-3 2.83m84.73-3.11a4.36 4.36 0 004.08 4.6 4.28 4.28 0 001.13-.09l8.2 28.37a4.81 4.81 0 00-2.9 3l-24.4-5.87a4 4 0 00.08-.5 3.55 3.55 0 10-5.63 2.66l-4.19 10.31a3.58 3.58 0 00-1.39-.37 3.51 3.51 0 00-2.55.88l-13.13-16a2.28 2.28 0 00.41-1.16 2.32 2.32 0 00-2.16-2.43 2.304 2.304 0 00-.27 4.6 2.25 2.25 0 001.54-.5l13.14 16a3.53 3.53 0 00-.49 3.45l3.17 2.29a3.55 3.55 0 003.2-1.79l8.76 3.94a2.76 2.76 0 00-.06.4 2.09 2.09 0 102.21-2 2.07 2.07 0 00-1.86.93l-8.77-3.94a3.51 3.51 0 00.19-.91 3.59 3.59 0 00-1.37-3l4.21-10.32a3.6 3.6 0 001.27.32 3.54 3.54 0 003.48-2.18l24.43 5.88c0 .16 0 .33-.05.49a4.78 4.78 0 004 5l-.78 12a4.79 4.79 0 00-.38 9.57 4.67 4.67 0 003-.84l9.66 12.47a7.1 7.1 0 00-2.6 5.11 6.29 6.29 0 000 1.15l-3.25.52.8.57 2.55-.4a7.19 7.19 0 002.07 3.75l1.47 1.06a7.17 7.17 0 0010.64-5.76l12.92.77a4.77 4.77 0 004.21 4.65 4.43 4.43 0 004.72-4.15 4.36 4.36 0 00-.55-2.43l15-9.08a6.16 6.16 0 004.77 2.75 5.88 5.88 0 00.94 0L519 269.7a4 4 0 00.7 7.95 4 4 0 001.29-.14L528 297a6 6 0 00-3.68 5.15 2.26 2.26 0 000 .43l-16.7-1a1.57 1.57 0 00.06-.43 5 5 0 00-4.76-5.23 5.05 5.05 0 00-3.72 1.34l-14.1-13.37a2.42 2.42 0 10-2.12 1 2.46 2.46 0 001.65-.53l14.13 13.34a5 5 0 00.39 6.84l-9.51 8.87a3.12 3.12 0 00-5 .82l-9.94-3.7a1.51 1.51 0 00.06-.36 2.44 2.44 0 10-.29 1l9.94 3.7a3.39 3.39 0 00-.1.57 3.14 3.14 0 001.69 3l-11.75 28a2 2 0 00-.35-.06 1.8 1.8 0 101.69 1.91 1.79 1.79 0 00-.72-1.55l11.77-28.06a2.51 2.51 0 00.61.1 3.07 3.07 0 001.85-.47l5.25 6.58a2.29 2.29 0 10.54-.44l-5.25-6.59a3.05 3.05 0 00.92-2 3.12 3.12 0 00-.51-1.91l9.62-9a5 5 0 002.69.9 5.27 5.27 0 005.11-3.63l16.93 1a6.16 6.16 0 005.63 5.29 5.94 5.94 0 005-2.06l.42-.56a6 6 0 001-3 5.92 5.92 0 00-.3-2.27l7.32-4.05a4.46 4.46 0 10-.41-.57l-7.16 4a6.07 6.07 0 00-5.14-3.49 6 6 0 00-2.08.24l-7-19.47a4 4 0 001.5-6.16l8.13-7.53a2.43 2.43 0 10-.89-2 2.38 2.38 0 00.43 1.52l-8.14 7.53a4 4 0 00-2.48-1 2.78 2.78 0 00-.5 0l-3.4-22.85a6.17 6.17 0 002.62-10.85l6.47-8.83a4.19 4.19 0 002 .64 4.27 4.27 0 10-2.56-1.06l-6.48 8.84a6.19 6.19 0 00-8.25 1.5l-24.17-16.14a4.24 4.24 0 00.52-1.78A4.2 4.2 0 10482 223a4.13 4.13 0 003.53-1.58l24.18 16.13a6.15 6.15 0 00-.16 5.95l-15 9.08a4.45 4.45 0 00-7.92 1.85l-13-.77a7.41 7.41 0 00-1.38-4l6.4-5.05a3.12 3.12 0 10-.91-2.38 3 3 0 00.48 1.85l-6.4 5.1a7.15 7.15 0 00-9.36-1.2l-9.67-12.48a4.8 4.8 0 00-2.47-8.24l.78-12a4.78 4.78 0 003.89-7.7l5.81-5.15a4 4 0 10-1.25-3.15 4 4 0 00.79 2.63l-5.8 5.15a4.85 4.85 0 00-4.33-1.25L442 177.37a4.34 4.34 0 00-1.28-8.39h-.27a4.34 4.34 0 00-4.32 4.08m-164.62-19.18a2.8 2.8 0 005 1.91l25.87 15.74a2.67 2.67 0 00-.25 1 2.82 2.82 0 00.3 1.41l-7 4.64a2.8 2.8 0 10.68 2 2.82 2.82 0 00-.3-1.41l7-4.64a2.77 2.77 0 001.38.88l-3.54 24.43h-.21a5.68 5.68 0 00-5.84 4.16l-8.34-1.64v-.19a4 4 0 00-7.69-1.65l-25 4.55a3.88 3.88 0 00-1.57-4l5.77-9.64a2.43 2.43 0 001 .24 2.8 2.8 0 10-1.55-.59l-5.77 9.63a4.05 4.05 0 00-3.09-.17l-11.85-25.69a2.79 2.79 0 10-1.65.42 2.86 2.86 0 001-.13l11.85 25.69a4 4 0 00-1.9 4.37l-22.8 7.5a3.67 3.67 0 10.32 1.7 4 4 0 00-.1-1l22.8-7.5a4 4 0 003.42 2.4 3.35 3.35 0 00.55 0l10.72 19a3.76 3.76 0 101.19-.12h-.51l-10.72-19a4 4 0 002.73-2.44l25-4.55a4.29 4.29 0 00-.07.5 4 4 0 007.79 1.35l8.35 1.64c0 .14 0 .28-.05.43a5.7 5.7 0 003.47 5.57l-3.75 28.38c-.12 0-.25-.05-.38-.06a2.57 2.57 0 101 .3l3.76-28.39a5.28 5.28 0 001.21.21 5.63 5.63 0 003.18-.76l14.31 40.18a4.492 4.492 0 105.53 7.08l.51-.47a4.49 4.49 0 00-3-7.53 4.41 4.41 0 00-2.42.54L303.52 210a5.67 5.67 0 002.25-4.2 7.44 7.44 0 000-.94l11.16-1.92a2.81 2.81 0 10-.11-1 1.38 1.38 0 000 .29l-11.17 1.93a5.7 5.7 0 00-4.31-4.26l3.54-24.45a2.8 2.8 0 001.6-5.13l2.89-5.85a2.68 2.68 0 00.59.12 2.42 2.42 0 10-1.21-.43l-2.91 5.84a2.71 2.71 0 00-.76-.17 2.79 2.79 0 00-2.35 1.07l-25.87-15.7a3.21 3.21 0 00.25-1 2.81 2.81 0 00-2.64-3h-.17a2.81 2.81 0 00-2.79 2.64" id="path4"/></clipPath><clipPath id="clip-path-2"><path class="cls-1" id="rect24" d="M0 0h792v612H0z"/></clipPath><linearGradient id="linear-gradient" y1="612" x2="1" y2="612" gradientTransform="matrix(335.14 0 0 -335.14 431.945 205508.2)" gradientUnits="userSpaceOnUse"><stop offset="0" stop-color="#fdc70c" id="stop7"/><stop offset=".19" stop-color="#fdc70c" id="stop9"/><stop offset=".23" stop-color="#fbbe15" id="stop11"/><stop offset=".33" stop-color="#f7a52c" id="stop13"/><stop offset=".43" stop-color="#f4953a" id="stop15"/><stop offset=".51" stop-color="#f3903f" id="stop17"/><stop offset=".81" stop-color="#ed683c" id="stop19"/><stop offset="1" stop-color="#ed683c" id="stop21"/></linearGradient><style id="style2">.cls-1{fill:none}.cls-4{clip-path:url(#clip-path-2)}.cls-5{fill:#f8991d}.cls-10,.cls-11,.cls-12,.cls-5,.cls-6,.cls-7,.cls-8,.cls-9{fill-rule:evenodd}.cls-6{fill:#2e1f1c}.cls-7{fill:#fdb840}.cls-8{fill:#f47d20}.cls-9{fill:#ef6e22}.cls-10{fill:#e55225}.cls-11{fill:#b93c26}.cls-12{fill:#5b2818}</style></defs><g clip-path="url(#clip-path)" id="g31" transform="translate(-215.995 -151.24)"><path id="rect29" fill="url(#linear-gradient)" d="M215.83 151.24h335.39v198.81H215.83z"/></g><g class="cls-4" clip-path="url(#clip-path-2)" id="g139" transform="translate(-215.995 -151.24)"><path class="cls-5" id="polygon33" d="M264.77 233.48l34.64 15.92 5.68-25.17z"/><path class="cls-6" id="polygon35" d="M237.49 253.19l-4.63 7.09 5.34 2.74z"/><path class="cls-7" id="polygon37" d="M237.49 253.19l.71 9.83 14.88-8.94-13.81-13.59z"/><path class="cls-5" id="polygon39" d="M253.08 254.08l-1.89-27.29-11.92 13.7z"/><path class="cls-5" id="polygon41" d="M238.2 263.02l9.64 4.94 5.24-13.88z"/><path class="cls-8" id="polygon43" d="M247.84 267.96l14.66-3.93-9.42-9.95z"/><path class="cls-9" id="polygon45" d="M262.5 264.03l4.39-16.3-13.81 6.35z"/><path class="cls-10" id="polygon47" d="M266.89 247.73l-2.12-14.25-11.69 20.6z"/><path class="cls-8" id="polygon49" d="M264.77 233.48l-13.58-6.69 1.89 27.29z"/><path class="cls-11" id="polygon51" d="M264.77 233.48l-7.9-19.05-5.68 12.36z"/><path class="cls-12" id="polygon53" d="M264.78 233.48l6.9-8.24-14.81-10.81z"/><path class="cls-7" id="polygon55" d="M264.77 233.48l40.32-9.25-33.41 1.01z"/><path class="cls-9" id="polygon57" d="M299.41 249.4l-34.63-15.92 2.11 14.25 23.61 1.11z"/><path class="cls-11" id="polygon59" d="M290.5 248.84l-23.61-1.11 20.69 16.3 11.83-14.63z"/><path class="cls-12" id="polygon61" d="M266.89 247.73l-4.39 16.3h25.08z"/><path class="cls-7" id="polygon63" d="M346.96 231.69l28.73-21.93-70.6 14.47z"/><path class="cls-8" id="polygon65" d="M305.09 224.23l-5.68 25.17 47.55-17.7z"/><path class="cls-10" id="polygon67" d="M299.41 249.4l45.88 6.91 1.67-24.61z"/><path class="cls-9" id="polygon69" d="M299.41 249.4l30.48 39.05 15.4-32.14z"/><path class="cls-10" id="polygon71" d="M299.41 249.4l-11.83 14.63 42.31 24.42z"/><path class="cls-5" id="polygon73" d="M329.89 288.45l23.18 6.22 28.97-11.53z"/><path class="cls-8" id="polygon75" d="M382.04 283.14l-36.75-26.83-15.4 32.14z"/><path class="cls-12" id="polygon77" d="M382.04 283.14l17.04-42.98-53.79 16.15z"/><path class="cls-11" id="polygon79" d="M399.08 240.16l-52.12-8.46-1.67 24.61z"/><path class="cls-9" id="polygon81" d="M399.08 240.16l-23.39-30.4-28.73 21.94z"/><path class="cls-5" id="polygon83" d="M399.08 240.16l25.83-26.84-49.22-3.56z"/><path class="cls-8" id="polygon85" d="M399.08 240.16l42.09.89-16.26-27.73z"/><path class="cls-10" id="polygon87" d="M441.17 241.05l-42.09-.89 35.19 33.63 3.12-4.46z"/><path class="cls-11" id="polygon89" d="M399.08 240.16l.89 36.53 34.3-2.9z"/><path class="cls-6" id="polygon91" d="M399.08 240.16l-17.04 42.98 17.93-6.45z"/><path class="cls-5" id="polygon93" d="M399.97 276.69l15.81 16.48 18.49-19.38z"/><path class="cls-5" id="polygon95" d="M382.04 283.14l-5.23 30.37 19.04-12.44z"/><path class="cls-7" id="polygon97" d="M382.04 283.14l-28.97 11.53 23.74 18.84z"/><path class="cls-11" id="polygon99" d="M376.81 313.51l9.21 7.31 9.83-19.75z"/><path class="cls-12" id="polygon101" d="M386.02 320.82l20.63-6.61-10.8-13.14z"/><path class="cls-10" id="polygon103" d="M386.02 320.82l25.82 20.5-5.19-27.11z"/><path class="cls-11" id="polygon105" d="M411.84 341.32l14.27-.23-19.46-26.88z"/><path class="cls-6" id="polygon107" d="M411.84 341.32v18.12l14.27-18.35z"/><path class="cls-10" id="polygon109" d="M450.75 301.63l-54.9-.56 10.8 13.14z"/><path class="cls-9" id="polygon111" d="M450.75 301.63l-34.97-8.46-19.93 7.9z"/><path class="cls-8" id="polygon113" d="M450.75 301.63l-16.48-27.84-18.49 19.38z"/><path class="cls-9" id="polygon115" d="M437.39 269.33l19.48-1.22 8.02-5.9-23.72-21.16z"/><path class="cls-9" id="polygon117" d="M458.55 229.8l-33.64-16.48 16.26 27.73z"/><path class="cls-10" id="polygon119" d="M441.17 241.05l38.31 15.26-20.93-26.51z"/><path class="cls-12" id="polygon121" d="M441.17 241.05l23.72 21.16 14.59-5.9z"/><path class="cls-11" id="polygon123" d="M464.89 262.21l19.05 32.18-4.46-38.08z"/><path class="cls-10" id="polygon125" d="M483.94 294.39l14.36-6.35-18.82-31.73z"/><path class="cls-9" id="polygon127" d="M483.94 294.39l34.52 13.25-20.16-19.6z"/><path class="cls-8" id="polygon129" d="M483.94 294.39l24.94 23.17 9.58-9.92z"/><path class="cls-5" id="polygon131" d="M508.88 317.56l30.29 9.8-20.71-19.72z"/><path class="cls-7" id="polygon133" d="M539.17 327.36l1.89-12.14-22.6-7.58z"/><path class="cls-10" id="polygon135" d="M541.07 315.22l-1.9 12.14 26.5-4.68-7.79-7.46z"/><path id="line137" fill="#f47d20" d="M565.67 322.68l-26.5 4.67"/></g><g aria-label="Tracker" transform="translate(13.825 264.08)" id="text151" font-size="43.45" font-family="AirAmericana,'Air Americana'" fill="#f8991d" letter-spacing=".2em"><path d="M12.73-34.803h4.867l-.521 4.301h-4.867L8.473 0H4.128l3.78-30.502H2.607l.521-4.301h7.865z" id="path172"/><path d="M42.796-22.246q-.174 1.303-.782 2.433-.565 1.13-1.477 1.998.695.87 1 2.043.347 1.13.173 2.39L40.059 0h-4.345l.565-4.302 1.086-9.08q.13-.957-.478-1.608-.565-.652-1.477-.652h-3.563l-1.39 11.34L29.891 0H25.59l1.912-15.642h-1.564l.521-4.302h1.564l1.825-14.86h7.908q1.347 0 2.477.522 1.13.521 1.911 1.39.783.87 1.174 2.086.39 1.217.217 2.564zm-6.865 2.302q.913 0 1.651-.651.782-.696.87-1.651l.043-.087.695-5.91q.13-.955-.478-1.607-.565-.652-1.52-.652h-3.52l-1 8.169-.304 2.39z" id="path174"/><path d="M64.963-34.803q1.347 0 2.477.52 1.173.522 1.955 1.391.782.87 1.13 2.086.39 1.217.217 2.563L67.266 0h-4.302l.522-4.302.521-4.388h-5.822l-.522 4.388L57.142 0h-4.345l1.086-8.69H52.32l.521-4.302h1.565l1.868-15.25q.174-1.347.825-2.564.696-1.217 1.695-2.086 1-.869 2.26-1.39 1.26-.521 2.606-.521zm1.477 6.56q.087-.955-.478-1.607t-1.52-.652h-1.304q-.912 0-1.695.652-.738.652-.825 1.607l-.739 5.91-1.13 9.341h5.823l1.13-9.341z" id="path176"/><path d="M84.686-8.69l-.217 2.086q-.13.955.434 1.65.609.652 1.521.652h7.908L93.767 0h-7.864q-1.174 0-2.216-.391-1.825-.695-2.825-2.346-.999-1.695-.738-3.867l.26-2.086.522-4.302 1.868-15.25q.26-2.13 1.695-3.78 1.434-1.695 3.389-2.39 1.086-.391 2.346-.391h7.865l-.522 4.301H89.64q-.912 0-1.694.652-.739.652-.826 1.608l-.738 5.909-1.13 9.341-.087.522z" id="path178"/><path d="M121.532-6.778q-.044.13-.044.39L120.663 0h-4.302l.521-4.302.305-2.302q.043-.87-.565-1.478-.565-.608-1.434-.608h-3.606l-.522 4.388L110.54 0h-4.345l1.086-8.69h-1.564l.521-4.302h1.564l1.869-15.25.825-6.561h4.302l-.044.39-.738 6.17-.739 5.91-1.13 9.341h3.563q.87 0 1.608-.608.739-.652.912-1.52l.87-7.213.738-5.91.739-6.17.043-.39h4.345l-.825 6.56-1.565 12.992q-.043.087-.043.26-.217 1.174-.782 2.26-.565 1.043-1.434 1.912 1.347 1.694 1.217 4.04z" id="path180"/><path d="M152.468-34.803l-.521 4.301h-7.865q-.956 0-1.694.652-.74.652-.87 1.607l-.738 5.91-.26 2.346H146.905l-.521 4.345h-6.431l-.825 6.909-.217 1.824-.044.305q-.087.869.348 1.477.434.608 1.216.782h8.299l-.521 4.302V0h-8.256q-.13 0-.347-.043-.739-.044-1.521-.348-1.825-.695-2.824-2.346-1-1.695-.739-3.867l.26-2.086.305-2.26.217-2.042.348-2.65h-1.564l.521-4.302h1.564l1.043-8.298q.26-2.13 1.651-3.78 1.434-1.695 3.39-2.39 1.085-.391 2.346-.391h1.303z" id="path182"/><path d="M177.886-22.246q-.174 1.303-.782 2.433-.565 1.13-1.477 1.998.695.87 1 2.043.347 1.13.173 2.39L175.149 0h-4.345l.565-4.302 1.086-9.08q.13-.957-.478-1.608-.565-.652-1.477-.652h-3.563l-1.39 11.34L164.981 0h-4.302l1.912-15.642h-1.564l.521-4.302h1.564l1.825-14.86h7.908q1.347 0 2.477.522 1.13.521 1.911 1.39.783.87 1.174 2.086.39 1.217.217 2.564zm-6.865 2.302q.913 0 1.651-.651.782-.696.87-1.651l.043-.087.695-5.91q.13-.955-.478-1.607-.565-.652-1.52-.652h-3.52l-1 8.169-.304 2.39z" id="path184"/></g><g aria-label="suivi" transform="translate(238.745 264.08)" id="text159" font-size="43.45" font-family="AirAmericana,'Air Americana'" fill="#5b2818"><path d="M15.381-9.602l-.347 2.998-.087.39q-.348 2.043-1.738 3.607-1.347 1.52-3.259 2.216-.521.174-1.086.304Q8.342 0 7.778 0H-.261l.522-4.302h7.951q.913-.043 1.651-.695.739-.652.826-1.564l.825-6.822q.13-.912-.434-1.564-.565-.695-1.521-.695H8.082q-1.304-.043-2.39-.521-1.043-.522-1.825-1.347-.739-.826-1.13-1.956-.39-1.13-.304-2.39l.044-.39.738-5.997q.261-2.129 1.651-3.78Q6.3-33.717 8.3-34.413q1.086-.39 2.303-.39H18.466l-.521 4.301H10.08q-.955 0-1.694.652t-.87 1.608l-.738 5.996q-.087.956.478 1.607.565.652 1.477.695h1.347v-.043l.044.043q1.173 0 2.172.392 1.825.695 2.825 2.39.999 1.65.738 3.78l-.39 2.997z" id="path188" letter-spacing=".2em"/><path d="M33.196 0q-1.39 0-2.52-.521-1.13-.522-1.912-1.39-.782-.913-1.173-2.086-.348-1.217-.174-2.607l3.476-28.2h4.301l-3.432 28.2q-.13.955.434 1.65.609.652 1.521.652h1.304q.956 0 1.694-.651.739-.696.87-1.651l3.432-28.2h4.345l-3.476 28.2q-.174 1.39-.826 2.607-.652 1.173-1.65 2.085-1 .87-2.304 1.39Q35.846 0 34.5 0z" id="path190" letter-spacing=".2em"/><path d="M58.093-34.803h4.345L58.136 0h-4.302z" id="path192" letter-spacing=".2em"/><path d="M90.072-34.803L86.639-6.604q-.174 1.39-.869 2.607-.652 1.173-1.65 2.085-1 .87-2.304 1.39Q80.556 0 79.21 0h-7.864l4.258-34.803h4.345L76.21-4.302h3.563q.913 0 1.651-.651.782-.696.87-1.651l3.475-28.2z" id="path194" letter-spacing=".2em"/><path d="M103.418-34.803h4.345L103.462 0H99.16z" id="path196"/></g><g class="cls-4" clip-path="url(#clip-path-2)" id="g165" transform="translate(-215.995 -151.24)"><path id="polygon163" d="M448.29 392.44H431.5l-16.8 8.39h16.8z" class="cls-11" fill="#b93c26" fill-rule="evenodd"/></g></svg>