<svg width="331" height="36" viewBox="0 0 331 36" fill="none" xmlns="http://www.w3.org/2000/svg">
<g clip-path="url(#clip0_1501_25153)">
<path d="M10.555 0.276978H15.422L14.901 4.57798H10.034L6.29801 35.08H1.95301L5.73301 4.57798H0.432007L0.953007 0.276978H8.81801H10.555Z" fill="#F8991D"/>
<path d="M40.621 12.834C40.505 13.7027 40.2443 14.5137 39.839 15.267C39.4623 16.0203 38.97 16.6863 38.362 17.265C38.8253 17.845 39.1586 18.526 39.362 19.308C39.5933 20.0613 39.651 20.858 39.535 21.698L37.884 35.08H33.539L34.104 30.778L35.19 21.698C35.2766 21.06 35.1173 20.524 34.712 20.09C34.3353 19.6553 33.843 19.438 33.235 19.438H29.672L28.282 30.778L27.716 35.08H23.415L25.327 19.438H23.763L24.284 15.136H25.848L27.673 0.276001H35.581C36.479 0.276001 37.3046 0.45 38.058 0.798C38.8113 1.14533 39.4483 1.60867 39.969 2.188C40.491 2.768 40.8823 3.46334 41.143 4.274C41.403 5.08534 41.4753 5.94 41.36 6.838L40.621 12.834ZM33.756 15.136C34.3646 15.136 34.915 14.919 35.407 14.485C35.9283 14.021 36.2183 13.4707 36.277 12.834L36.32 12.747L37.015 6.837C37.1016 6.20034 36.9423 5.66467 36.537 5.23C36.1603 4.79533 35.6536 4.578 35.017 4.578H31.497L30.497 12.747L30.193 15.137L33.756 15.136Z" fill="#F8991D"/>
<path d="M62.788 0.276978C63.686 0.276978 64.5117 0.450311 65.265 0.796978C66.047 1.14498 66.6987 1.60865 67.22 2.18798C67.7413 2.76798 68.118 3.46331 68.35 4.27398C68.61 5.08531 68.6823 5.93965 68.567 6.83698L65.091 35.08H60.789L61.311 30.778L61.832 26.39H56.01L55.488 30.778L54.967 35.08H50.622L51.708 26.39H50.145L50.666 22.088H52.231L54.099 6.83798C54.215 5.93998 54.49 5.08531 54.924 4.27398C55.388 3.46265 55.953 2.76731 56.619 2.18798C57.2857 1.60865 58.039 1.14531 58.879 0.797977C59.719 0.450644 60.5877 0.276978 61.485 0.276978H62.788ZM64.265 6.83698C64.323 6.20031 64.1637 5.66465 63.787 5.22998C63.4104 4.79531 62.9037 4.57798 62.267 4.57798H60.963C60.355 4.57798 59.79 4.79531 59.268 5.22998C58.776 5.66465 58.501 6.20031 58.443 6.83698L57.704 12.747L56.574 22.088H62.397L63.527 12.747L64.265 6.83698Z" fill="#F8991D"/>
<path d="M82.511 26.39L82.294 28.476C82.2074 29.1126 82.352 29.6626 82.728 30.126C83.134 30.5606 83.641 30.778 84.249 30.778H92.157L91.592 35.08H83.728C82.9454 35.08 82.2067 34.9496 81.512 34.689C80.2954 34.2256 79.3537 33.4436 78.687 32.343C78.021 31.213 77.775 29.924 77.949 28.476L78.209 26.39L78.731 22.088L80.599 6.83798C80.7724 5.41798 81.3374 4.15798 82.294 3.05798C83.25 1.92798 84.3797 1.13131 85.683 0.66798C86.407 0.407314 87.189 0.276978 88.029 0.276978H95.894L95.372 4.57798H87.465C86.857 4.57798 86.2924 4.79531 85.771 5.22998C85.2784 5.66465 85.003 6.20065 84.945 6.83798L84.207 12.747L83.077 22.088L82.99 22.61L82.511 26.39Z" fill="#F8991D"/>
<path d="M119.357 28.302C119.328 28.3886 119.313 28.5186 119.313 28.692L118.488 35.08H114.186L114.707 30.778L115.012 28.476C115.041 27.896 114.852 27.4033 114.447 26.998C114.07 26.5926 113.592 26.39 113.013 26.39H109.407L108.885 30.778L108.365 35.08H104.02L105.106 26.39H103.542L104.063 22.088H105.627L107.496 6.83798L108.321 0.276978H112.623L112.579 0.666981L111.841 6.83698L111.102 12.747L109.972 22.088H113.535C114.115 22.088 114.651 21.8853 115.143 21.48C115.636 21.0453 115.94 20.5386 116.055 19.96L116.925 12.747L117.663 6.83698L118.402 0.666981L118.445 0.276978H122.79L121.965 6.83698L120.4 19.829C120.371 19.887 120.357 19.9736 120.357 20.089C120.212 20.8716 119.952 21.625 119.575 22.349C119.198 23.0443 118.72 23.6816 118.141 24.261C119.039 25.3903 119.445 26.737 119.358 28.301L119.357 28.302Z" fill="#F8991D"/>
<path d="M150.293 0.276978L149.772 4.57798H141.907C141.27 4.57798 140.705 4.79531 140.213 5.22998C139.72 5.66465 139.43 6.20031 139.343 6.83698L138.605 12.747L138.345 15.093H144.73L144.209 19.438H137.778L136.953 26.347L136.736 28.171L136.692 28.476C136.634 29.0553 136.75 29.5476 137.04 29.953C137.329 30.3583 137.735 30.619 138.256 30.735H146.555L146.034 35.037V35.08H137.778C137.691 35.08 137.576 35.0656 137.431 35.037C136.938 35.0076 136.431 34.8916 135.91 34.689C134.693 34.2256 133.752 33.4436 133.086 32.343C132.419 31.213 132.173 29.924 132.347 28.476L132.607 26.39L132.912 24.13L133.129 22.088L133.477 19.438H131.913L132.434 15.136H133.998L135.041 6.83798C135.214 5.41798 135.765 4.15798 136.692 3.05798C137.648 1.92798 138.778 1.13131 140.082 0.66798C140.805 0.407314 141.587 0.276978 142.428 0.276978H143.731H150.293Z" fill="#F8991D"/>
<path d="M175.711 12.834C175.595 13.7027 175.334 14.5137 174.929 15.267C174.552 16.0203 174.06 16.6863 173.452 17.265C173.915 17.845 174.249 18.526 174.452 19.308C174.683 20.0613 174.741 20.858 174.625 21.698L172.974 35.08H168.629L169.194 30.778L170.28 21.698C170.367 21.06 170.207 20.524 169.802 20.09C169.425 19.6553 168.933 19.438 168.325 19.438H164.762L163.372 30.778L162.806 35.08H158.504L160.416 19.438H158.852L159.373 15.136H160.937L162.762 0.276001H170.67C171.568 0.276001 172.394 0.45 173.147 0.798C173.9 1.14533 174.537 1.60867 175.058 2.188C175.58 2.768 175.971 3.46334 176.232 4.274C176.492 5.08534 176.564 5.94 176.449 6.838L175.711 12.834ZM168.846 15.136C169.455 15.136 170.005 14.919 170.497 14.485C171.018 14.021 171.308 13.4707 171.367 12.834L171.41 12.747L172.105 6.837C172.192 6.20034 172.032 5.66467 171.627 5.23C171.25 4.79533 170.744 4.578 170.107 4.578H166.587L165.587 12.747L165.283 15.137L168.846 15.136Z" fill="#F8991D"/>
<path d="M238.126 25.478L237.779 28.476L237.692 28.866C237.46 30.228 236.881 31.4303 235.954 32.473C235.056 33.4863 233.97 34.225 232.695 34.689C232.348 34.805 231.986 34.9063 231.609 34.993C231.261 35.051 230.899 35.08 230.523 35.08H222.484L223.006 30.778H230.957C231.566 30.7493 232.116 30.5176 232.608 30.083C233.101 29.6483 233.376 29.127 233.434 28.519L234.259 21.697C234.346 21.089 234.201 20.5676 233.825 20.133C233.448 19.6696 232.941 19.438 232.304 19.438H230.827C229.958 19.4093 229.161 19.2356 228.437 18.917C227.742 18.569 227.133 18.12 226.612 17.57C226.119 17.0193 225.743 16.3673 225.482 15.614C225.222 14.8606 225.121 14.064 225.178 13.224L225.222 12.834L225.96 6.83698C226.134 5.41765 226.684 4.15765 227.611 3.05698C228.567 1.92765 229.712 1.13098 231.045 0.666981C231.769 0.406981 232.537 0.276978 233.348 0.276978H241.211L240.69 4.57798H232.825C232.188 4.57798 231.624 4.79531 231.131 5.22998C230.638 5.66465 230.348 6.20065 230.261 6.83798L229.523 12.834C229.465 13.4713 229.624 14.007 230.001 14.441C230.378 14.8756 230.87 15.1073 231.478 15.136H232.825V15.093L232.869 15.136C233.651 15.136 234.375 15.2666 235.041 15.528C236.258 15.9913 237.199 16.788 237.866 17.918C238.532 19.018 238.778 20.278 238.604 21.698L238.214 24.695L238.126 25.478Z" fill="#5B2818"/>
<path d="M255.941 35.08C255.014 35.08 254.174 34.9063 253.421 34.559C252.668 34.211 252.03 33.7477 251.509 33.169C250.988 32.5603 250.597 31.865 250.336 31.083C250.104 30.2717 250.046 29.4027 250.162 28.476L253.638 0.276001H257.939L254.507 28.476C254.42 29.1127 254.565 29.6627 254.941 30.126C255.347 30.5607 255.854 30.778 256.462 30.778H257.766C258.403 30.778 258.968 30.561 259.46 30.127C259.953 29.663 260.243 29.1127 260.33 28.476L263.762 0.276001H268.107L264.631 28.476C264.515 29.4027 264.24 30.2717 263.805 31.083C263.37 31.865 262.82 32.56 262.155 33.168C261.488 33.748 260.72 34.2113 259.851 34.558C259.011 34.906 258.142 35.08 257.245 35.08H255.941Z" fill="#5B2818"/>
<path d="M280.838 0.276978H285.183L280.881 35.08H276.579L280.838 0.276978Z" fill="#5B2818"/>
<path d="M312.817 0.277L309.384 28.476C309.268 29.4027 308.978 30.2717 308.515 31.083C308.08 31.865 307.53 32.56 306.865 33.168C306.198 33.748 305.43 34.2113 304.561 34.558C303.721 34.906 302.852 35.08 301.955 35.08H294.091L298.349 0.277H302.694L298.955 30.778H302.518C303.127 30.778 303.677 30.561 304.169 30.127C304.69 29.663 304.98 29.1127 305.039 28.476L308.514 0.276001L312.817 0.277Z" fill="#5B2818"/>
<path d="M326.163 0.276978H330.508L326.207 35.08H321.905L326.163 0.276978Z" fill="#5B2818"/>
<path fill-rule="evenodd" clip-rule="evenodd" d="M216.295 12.2H199.505L182.705 20.5899H199.505L216.295 12.2Z" fill="#B93C26"/>
</g>
<defs>
<clipPath id="clip0_1501_25153">
<rect width="331" height="36" fill="white"/>
</clipPath>
</defs>
</svg>
