<svg width="18" height="19" viewBox="0 0 18 19" fill="none" xmlns="http://www.w3.org/2000/svg">
<path d="M9 0.359863C4.05 0.359863 0 4.46386 0 9.47986C0 14.4959 4.05 18.5999 9 18.5999C13.95 18.5999 18 14.4959 18 9.47986C18 4.46386 13.95 0.359863 9 0.359863ZM15.21 5.83186H12.6C12.33 4.64626 11.88 3.64306 11.34 2.54866C12.96 3.18706 14.4 4.28146 15.21 5.83186ZM9 2.18386C9.72 3.27826 10.35 4.46386 10.71 5.83186H7.29C7.65 4.55506 8.28 3.27826 9 2.18386ZM2.07 11.3039C1.89 10.7567 1.8 10.1183 1.8 9.47986C1.8 8.84146 1.89 8.20306 2.07 7.65586H5.13C5.04 8.29426 5.04 8.84146 5.04 9.47986C5.04 10.1183 5.13 10.6655 5.13 11.3039H2.07ZM2.79 13.1279H5.4C5.67 14.3135 6.12 15.3167 6.66 16.4111C5.04 15.7727 3.6 14.6783 2.79 13.1279ZM5.4 5.83186H2.79C3.69 4.28146 5.04 3.18706 6.66 2.54866C6.12 3.64306 5.67 4.64626 5.4 5.83186ZM9 16.7759C8.28 15.6815 7.65 14.4959 7.29 13.1279H10.71C10.35 14.4047 9.72 15.6815 9 16.7759ZM11.07 11.3039H6.93C6.84 10.6655 6.75 10.1183 6.75 9.47986C6.75 8.84146 6.84 8.29426 6.93 7.65586H11.16C11.25 8.29426 11.34 8.84146 11.34 9.47986C11.34 10.1183 11.16 10.6655 11.07 11.3039ZM11.34 16.4111C11.88 15.4079 12.33 14.3135 12.6 13.1279H15.21C14.4 14.6783 12.96 15.7727 11.34 16.4111ZM12.96 11.3039C13.05 10.6655 13.05 10.1183 13.05 9.47986C13.05 8.84146 12.96 8.29426 12.96 7.65586H16.02C16.2 8.20306 16.29 8.84146 16.29 9.47986C16.29 10.1183 16.2 10.7567 16.02 11.3039H12.96Z" fill="#838D9B"/>
</svg>