<svg width="19" height="19" viewBox="0 0 19 19" fill="none" xmlns="http://www.w3.org/2000/svg">
<path d="M13.9665 12.5362C14.0632 12.4471 18.0387 9.24263 18.0387 9.24263L17.3613 8.97529C16.9742 8.80063 17.0748 8.56538 17.1677 8.35508C17.2606 8.08418 17.9458 5.9562 17.9458 5.9562C17.9458 5.9562 16.0994 6.31265 15.7123 6.40176C15.4219 6.4873 15.3252 6.31265 15.2284 6.13442C15.1316 5.9562 14.6477 4.97954 14.6477 4.97954C14.6477 4.97954 12.6116 7.11465 12.5148 7.2002C12.1277 7.46753 11.7368 7.2002 11.8335 6.84375C11.8335 6.4873 12.9019 2.22422 12.9019 2.22422C12.9019 2.22422 11.7368 2.84443 11.3497 3.02266C11.0594 3.20088 10.8619 3.20088 10.6684 2.84443C10.471 2.5771 9.01548 0 9.01548 0C9.01548 0 7.56387 2.5771 7.37032 2.84443C7.17677 3.20088 6.98323 3.20088 6.68903 3.02266C6.30194 2.84443 5.13677 2.22422 5.13677 2.22422C5.13677 2.22422 6.20516 6.4873 6.20516 6.84375C6.30194 7.2002 5.91484 7.46753 5.52387 7.2002C5.4271 7.11108 3.39097 4.97954 3.39097 4.97954C3.39097 4.97954 2.9071 5.95264 2.81032 6.13086C2.71355 6.30908 2.61677 6.48374 2.32645 6.39819C1.93548 6.30908 0.0929032 5.95264 0.0929032 5.95264C0.0929032 5.95264 0.774194 8.08062 0.870968 8.35151C0.963871 8.56538 1.06452 8.79707 0.677419 8.97173L0 9.24263C0 9.24263 3.97161 12.4471 4.07226 12.5362C4.26968 12.7144 4.45935 12.8035 4.26968 13.3382C4.07226 13.8729 3.87871 14.5893 3.87871 14.5893C3.87871 14.5893 7.56387 13.8729 7.95484 13.7837C8.29161 13.7517 8.66323 13.8729 8.66323 14.2293C8.66323 14.5893 8.43871 18.25 8.43871 18.25H9.6C9.6 18.25 9.37548 14.5893 9.37548 14.2293C9.37548 13.8729 9.74323 13.7517 10.0877 13.7837C10.4748 13.8729 14.16 14.5893 14.16 14.5893C14.16 14.5893 13.9665 13.8729 13.7729 13.3382C13.5794 12.8035 13.7729 12.7144 13.9665 12.5362V12.5362Z" fill="#838D9B"/>
</svg>
