<?xml version="1.0" encoding="UTF-8" standalone="no"?>
<!-- Created with Inkscape (http://www.inkscape.org/) -->

<svg
   viewBox="0 0 92.518196 69.871162"
   version="1.1"
   id="svg5"
   inkscape:version="1.1.2 (0a00cf5339, 2022-02-04)"
   sodipodi:docname="tracker-hardhat.svg"
   xmlns:inkscape="http://www.inkscape.org/namespaces/inkscape"
   xmlns:sodipodi="http://sodipodi.sourceforge.net/DTD/sodipodi-0.dtd"
   xmlns="http://www.w3.org/2000/svg"
   xmlns:svg="http://www.w3.org/2000/svg">
  <sodipodi:namedview
     id="namedview7"
     pagecolor="#ffffff"
     bordercolor="#666666"
     borderopacity="1.0"
     inkscape:pageshadow="2"
     inkscape:pageopacity="0.0"
     inkscape:pagecheckerboard="0"
     inkscape:document-units="mm"
     showgrid="false"
     inkscape:zoom="1.5554293"
     inkscape:cx="161.6917"
     inkscape:cy="100.61531"
     inkscape:window-width="2560"
     inkscape:window-height="1307"
     inkscape:window-x="1080"
     inkscape:window-y="187"
     inkscape:window-maximized="1"
     inkscape:current-layer="layer1" />
  <defs
     id="defs2">
    <clipPath
       id="clip-path">
      <path
         class="cls-1"
         d="m 386.49,310.56 a 3.31,3.31 0 1 0 4.75,-2.77 l -0.65,-0.24 a 4.14,4.14 0 0 0 -0.6,-0.09 h -0.2 a 3.3,3.3 0 0 0 -3.3,3.11 m -56.61,-12.15 -0.63,0.29 a 4,4 0 0 0 -2,3.21 3.9,3.9 0 0 0 0.56,2.27 l -11.77,8.5 a 3,3 0 1 0 0.4,0.57 l 11.78,-8.51 a 3.93,3.93 0 0 0 2.77,1.38 h 0.36 l 0.68,5.62 a 3,3 0 1 0 3.51,3.92 l 23.32,5.43 a 1.38,1.38 0 0 0 0,0.2 3.25,3.25 0 0 0 3.05,3.44 3.2,3.2 0 0 0 2.51,-1 l 14.17,11 a 2.51,2.51 0 0 0 -0.36,1.13 2.57,2.57 0 1 0 2.72,-2.41 2.52,2.52 0 0 0 -1.94,0.73 l -14.16,-11 a 3.33,3.33 0 0 0 0.49,-1.5 3.24,3.24 0 0 0 -6.29,-1.26 L 335.74,315 v -0.16 a 3,3 0 0 0 -2.83,-3.18 h -0.19 l -0.67,-5.61 a 4,4 0 0 0 3.16,-3.66 v -0.19 l 4.83,-0.37 a 2.51,2.51 0 1 0 -0.07,-0.69 l -4.81,0.37 a 4,4 0 0 0 -3.68,-3.33 h -0.23 a 4,4 0 0 0 -1.39,0.25 m 86.79,1.8 a 3.3,3.3 0 0 0 3.1,3.5 3.25,3.25 0 0 0 1.72,-0.38 l -3,-5.87 a 3.27,3.27 0 0 0 -1.83,2.75 m 1.83,-2.75 0.15,-0.07 -0.75,-2.34 -4.82,-9.16 a 3.52,3.52 0 0 1 -0.68,-0.39 z m -6.1,-12 -1.31,-2.58 a 3.38,3.38 0 0 0 1.31,2.58 m -1.25,-3.27 1.93,3.66 a 3.12,3.12 0 0 0 1.11,0.27 3.53,3.53 0 0 0 0.86,-0.08 l 2.85,9 4.16,7.9 a 3.22,3.22 0 0 0 1.2,-2.34 3.11,3.11 0 0 0 -0.1,-1 l 8.92,-3.18 a 2.57,2.57 0 1 0 -0.29,-1.34 2.19,2.19 0 0 0 0.06,0.68 l -8.89,3.22 a 3.28,3.28 0 0 0 -2.76,-1.87 3.14,3.14 0 0 0 -0.87,0.07 l -3.59,-11.31 a 3.3,3.3 0 0 0 -1.13,-6.32 h -0.2 a 3.3,3.3 0 0 0 -3.23,2.68 m 4,-17.76 a 3.17,3.17 0 0 0 1.64,0.57 3.27,3.27 0 0 0 2.55,-1 z m -1.47,-2.93 a 3.29,3.29 0 0 0 0.94,2.49 l -0.59,-3.79 a 3.39,3.39 0 0 0 -0.35,1.3 m 6.58,0 a 2.17,2.17 0 0 1 0,0.36 3.3,3.3 0 0 1 -0.94,2.13 l 43.06,-4.28 a 6,6 0 0 1 -0.88,-0.72 l -4.62,-3.35 z m -11.93,-26.15 a 2.43,2.43 0 1 0 2.35,3.07 l -0.3,-2 a 2.52,2.52 0 0 0 -1.37,-1 l 0.57,-4.18 -0.38,-2.42 z M 336,226.76 a 2.61,2.61 0 0 0 0.57,-0.1 z m 73.56,4.57 0.8,5.2 a 2.43,2.43 0 0 1 0.38,1.46 2.74,2.74 0 0 1 -0.08,0.5 l 3.34,21.75 a 3.29,3.29 0 0 1 6.13,0.64 l 35.94,-5.74 -45.31,-32.81 z m -72.3,-5 a 3.22,3.22 0 0 1 -0.69,0.28 l 24.55,-4.52 a 2.67,2.67 0 0 1 -0.56,-0.28 z m 23.86,-4.24 a 3,3 0 0 0 0.95,0.21 3.17,3.17 0 0 0 2.29,-0.8 z m 48.06,6.77 0.91,-6.7 a 3.59,3.59 0 0 1 -2.18,-1.55 z M 351.4,176.11 a 3,3 0 0 0 2.57,3.16 l -0.68,22 a 4.51,4.51 0 0 0 -4.14,3.34 l -9.44,-1.76 a 2.87,2.87 0 1 0 -0.14,0.68 l 9.46,1.76 v 0.21 a 4.45,4.45 0 0 0 1.07,3.17 l -12.32,12.24 a 3.25,3.25 0 0 0 -1.88,-0.75 3.3023212,3.3023212 0 0 0 -0.57,6.58 l 1.95,-0.38 a 3.28,3.28 0 0 0 1,-5 l 12.31,-12.24 a 4.44,4.44 0 0 0 2.67,1.09 4.54,4.54 0 0 0 2.43,-0.55 l 4.58,7 a 3.16,3.16 0 0 0 0.32,5.15 l 4.26,-0.83 a 3.14,3.14 0 0 0 0.61,-1.68 3.19,3.19 0 0 0 -3,-3.37 3.24,3.24 0 0 0 -1.62,0.35 l -4.59,-7 a 4.46,4.46 0 0 0 1.74,-3.29 3.13,3.13 0 0 0 0,-0.53 l 10.12,-1.38 a 3.28,3.28 0 1 0 -0.1,-1 1.41,1.41 0 0 0 0,0.29 l -10.12,1.38 a 4.49,4.49 0 0 0 -3.9,-3.51 l 0.68,-22 a 3.0002042,3.0002042 0 0 0 -0.07,-6 h -0.18 a 3,3 0 0 0 -3,2.83 m 84.73,-3.11 a 4.36,4.36 0 0 0 4.08,4.6 4.28,4.28 0 0 0 1.13,-0.09 l 8.2,28.37 a 4.81,4.81 0 0 0 -2.9,3 l -24.4,-5.87 a 4,4 0 0 0 0.08,-0.5 3.55,3.55 0 1 0 -5.63,2.66 l -4.19,10.31 a 3.58,3.58 0 0 0 -1.39,-0.37 3.51,3.51 0 0 0 -2.55,0.88 l -13.13,-16 a 2.28,2.28 0 0 0 0.41,-1.16 2.32,2.32 0 0 0 -2.16,-2.43 2.304,2.304 0 0 0 -0.27,4.6 2.25,2.25 0 0 0 1.54,-0.5 l 13.14,16 a 3.53,3.53 0 0 0 -0.49,3.45 l 3.17,2.29 a 3.55,3.55 0 0 0 3.2,-1.79 l 8.76,3.94 a 2.76,2.76 0 0 0 -0.06,0.4 2.09,2.09 0 1 0 2.21,-2 2.07,2.07 0 0 0 -1.86,0.93 l -8.77,-3.94 a 3.51,3.51 0 0 0 0.19,-0.91 3.59,3.59 0 0 0 -1.37,-3 l 4.21,-10.32 a 3.6,3.6 0 0 0 1.27,0.32 3.54,3.54 0 0 0 3.48,-2.18 l 24.43,5.88 c 0,0.16 0,0.33 -0.05,0.49 a 4.78,4.78 0 0 0 4,5 l -0.78,12 a 4.79,4.79 0 0 0 -0.38,9.57 4.67,4.67 0 0 0 3,-0.84 l 9.66,12.47 a 7.1,7.1 0 0 0 -2.6,5.11 6.29,6.29 0 0 0 0,1.15 l -3.25,0.52 0.8,0.57 2.55,-0.4 a 7.19,7.19 0 0 0 2.07,3.75 l 1.47,1.06 a 7.17,7.17 0 0 0 10.64,-5.76 l 12.92,0.77 a 4.77,4.77 0 0 0 4.21,4.65 4.43,4.43 0 0 0 4.72,-4.15 4.36,4.36 0 0 0 -0.55,-2.43 l 15,-9.08 a 6.16,6.16 0 0 0 4.77,2.75 5.88,5.88 0 0 0 0.94,0 L 519,269.7 a 4,4 0 0 0 0.7,7.95 4,4 0 0 0 1.29,-0.14 L 528,297 a 6,6 0 0 0 -3.68,5.15 2.26,2.26 0 0 0 0,0.43 l -16.7,-1 a 1.57,1.57 0 0 0 0.06,-0.43 5,5 0 0 0 -4.76,-5.23 5.05,5.05 0 0 0 -3.72,1.34 l -14.1,-13.37 a 2.42,2.42 0 1 0 -2.12,1 2.46,2.46 0 0 0 1.65,-0.53 l 14.13,13.34 a 5,5 0 0 0 0.39,6.84 l -9.51,8.87 a 3.12,3.12 0 0 0 -5,0.82 l -9.94,-3.7 a 1.51,1.51 0 0 0 0.06,-0.36 2.44,2.44 0 1 0 -0.29,1 l 9.94,3.7 a 3.39,3.39 0 0 0 -0.1,0.57 3.14,3.14 0 0 0 1.69,3 l -11.75,28 a 2,2 0 0 0 -0.35,-0.06 1.8,1.8 0 1 0 1.69,1.91 1.79,1.79 0 0 0 -0.72,-1.55 l 11.77,-28.06 a 2.51,2.51 0 0 0 0.61,0.1 3.07,3.07 0 0 0 1.85,-0.47 l 5.25,6.58 a 2.29,2.29 0 1 0 0.54,-0.44 l -5.25,-6.59 a 3.05,3.05 0 0 0 0.92,-2 3.12,3.12 0 0 0 -0.51,-1.91 l 9.62,-9 a 5,5 0 0 0 2.69,0.9 5.27,5.27 0 0 0 5.11,-3.63 l 16.93,1 a 6.16,6.16 0 0 0 5.63,5.29 5.94,5.94 0 0 0 5,-2.06 l 0.42,-0.56 a 6,6 0 0 0 1,-3 5.92,5.92 0 0 0 -0.3,-2.27 l 7.32,-4.05 A 4.46,4.46 0 1 0 543.06,296 l -7.16,4 a 6.07,6.07 0 0 0 -5.14,-3.49 6,6 0 0 0 -2.08,0.24 l -7,-19.47 a 4,4 0 0 0 1.5,-6.16 l 8.13,-7.53 a 2.43,2.43 0 1 0 -0.89,-2 2.38,2.38 0 0 0 0.43,1.52 l -8.14,7.53 a 4,4 0 0 0 -2.48,-1 2.78,2.78 0 0 0 -0.5,0 l -3.4,-22.85 a 6.17,6.17 0 0 0 2.62,-10.85 l 6.47,-8.83 a 4.19,4.19 0 0 0 2,0.64 4.27,4.27 0 1 0 -2.56,-1.06 l -6.48,8.84 a 6.19,6.19 0 0 0 -8.25,1.5 l -24.17,-16.14 a 4.24,4.24 0 0 0 0.52,-1.78 4.2,4.2 0 1 0 -4.48,3.89 4.13,4.13 0 0 0 3.53,-1.58 l 24.18,16.13 a 6.15,6.15 0 0 0 -0.16,5.95 l -15,9.08 a 4.45,4.45 0 0 0 -7.92,1.85 l -13,-0.77 a 7.41,7.41 0 0 0 -1.38,-4 l 6.4,-5.05 a 3.12,3.12 0 1 0 -0.91,-2.38 3,3 0 0 0 0.48,1.85 l -6.4,5.1 a 7.15,7.15 0 0 0 -9.36,-1.2 l -9.67,-12.48 a 4.8,4.8 0 0 0 -2.47,-8.24 l 0.78,-12 a 4.78,4.78 0 0 0 3.89,-7.7 l 5.81,-5.15 a 4,4 0 1 0 -1.25,-3.15 4,4 0 0 0 0.79,2.63 l -5.8,5.15 a 4.85,4.85 0 0 0 -4.33,-1.25 L 442,177.37 a 4.34,4.34 0 0 0 -1.28,-8.39 h -0.27 a 4.34,4.34 0 0 0 -4.32,4.08 M 271.51,153.88 a 2.8,2.8 0 0 0 5,1.91 l 25.87,15.74 a 2.67,2.67 0 0 0 -0.25,1 2.82,2.82 0 0 0 0.3,1.41 l -7,4.64 a 2.8,2.8 0 1 0 0.68,2 2.82,2.82 0 0 0 -0.3,-1.41 l 7,-4.64 a 2.77,2.77 0 0 0 1.38,0.88 l -3.54,24.43 h -0.21 A 5.68,5.68 0 0 0 294.6,204 l -8.34,-1.64 v -0.19 a 4,4 0 0 0 -7.69,-1.65 l -25,4.55 a 3.88,3.88 0 0 0 -1.57,-4 l 5.77,-9.64 a 2.43,2.43 0 0 0 1,0.24 2.8,2.8 0 1 0 -1.55,-0.59 l -5.77,9.63 a 4.05,4.05 0 0 0 -3.09,-0.17 l -11.85,-25.69 a 2.79,2.79 0 1 0 -1.65,0.42 2.86,2.86 0 0 0 1,-0.13 l 11.85,25.69 a 4,4 0 0 0 -1.9,4.37 l -22.8,7.5 a 3.67,3.67 0 1 0 0.32,1.7 4,4 0 0 0 -0.1,-1 l 22.8,-7.5 a 4,4 0 0 0 3.42,2.4 3.35,3.35 0 0 0 0.55,0 l 10.72,19 a 3.76,3.76 0 1 0 1.19,-0.12 h -0.51 l -10.72,-19 a 4,4 0 0 0 2.73,-2.44 l 25,-4.55 a 4.29,4.29 0 0 0 -0.07,0.5 4,4 0 0 0 7.79,1.35 l 8.35,1.64 c 0,0.14 0,0.28 -0.05,0.43 a 5.7,5.7 0 0 0 3.47,5.57 l -3.75,28.38 c -0.12,0 -0.25,-0.05 -0.38,-0.06 a 2.57,2.57 0 1 0 1,0.3 l 3.76,-28.39 a 5.28,5.28 0 0 0 1.21,0.21 5.63,5.63 0 0 0 3.18,-0.76 l 14.31,40.18 a 4.492,4.492 0 1 0 5.53,7.08 l 0.51,-0.47 a 4.49,4.49 0 0 0 -3,-7.53 4.41,4.41 0 0 0 -2.42,0.54 L 303.52,210 a 5.67,5.67 0 0 0 2.25,-4.2 7.44,7.44 0 0 0 0,-0.94 l 11.16,-1.92 a 2.81,2.81 0 1 0 -0.11,-1 1.38,1.38 0 0 0 0,0.29 l -11.17,1.93 a 5.7,5.7 0 0 0 -4.31,-4.26 l 3.54,-24.45 a 2.8,2.8 0 0 0 1.6,-5.13 l 2.89,-5.85 a 2.68,2.68 0 0 0 0.59,0.12 2.42,2.42 0 1 0 -1.21,-0.43 l -2.91,5.84 a 2.71,2.71 0 0 0 -0.76,-0.17 2.79,2.79 0 0 0 -2.35,1.07 l -25.87,-15.7 a 3.21,3.21 0 0 0 0.25,-1 2.81,2.81 0 0 0 -2.64,-3 h -0.17 a 2.81,2.81 0 0 0 -2.79,2.64"
         id="path4" />
    </clipPath>
    <clipPath
       id="clip-path-2">
      <path
         class="cls-1"
         id="rect24"
         d="M 0,0 H 792 V 612 H 0 Z" />
    </clipPath>
    <linearGradient
       id="linear-gradient"
       y1="612"
       x2="1"
       y2="612"
       gradientTransform="matrix(335.14,0,0,-335.14,431.945,205508.2)"
       gradientUnits="userSpaceOnUse">
      <stop
         offset="0"
         stop-color="#fdc70c"
         id="stop7" />
      <stop
         offset=".19"
         stop-color="#fdc70c"
         id="stop9" />
      <stop
         offset=".23"
         stop-color="#fbbe15"
         id="stop11" />
      <stop
         offset=".33"
         stop-color="#f7a52c"
         id="stop13" />
      <stop
         offset=".43"
         stop-color="#f4953a"
         id="stop15" />
      <stop
         offset=".51"
         stop-color="#f3903f"
         id="stop17" />
      <stop
         offset=".81"
         stop-color="#ed683c"
         id="stop19" />
      <stop
         offset="1"
         stop-color="#ed683c"
         id="stop21" />
    </linearGradient>
    <style
       id="style2">.cls-1{fill:none}.cls-4{clip-path:url(#clip-path-2)}.cls-5{fill:#f8991d}.cls-10,.cls-11,.cls-12,.cls-5,.cls-6,.cls-7,.cls-8,.cls-9{fill-rule:evenodd}.cls-6{fill:#2e1f1c}.cls-7{fill:#fdb840}.cls-8{fill:#f47d20}.cls-9{fill:#ef6e22}.cls-10{fill:#e55225}.cls-11{fill:#b93c26}.cls-12{fill:#5b2818}</style>
    <radialGradient
       inkscape:collect="always"
       r="255.59"
       gradientTransform="matrix(-0.12272793,0,0,0.12272793,-1807.3634,-1063.9497)"
       cx="-464.92001"
       cy="873.19"
       gradientUnits="userSpaceOnUse"
       id="radialGradient3026-9-1">
      <stop
         offset=".5"
         style="stop-color:#ffd046;stop-opacity:1"
         id="stop48-0-2" />
      <stop
         offset="1"
         style="stop-color:#f0a957;stop-opacity:1"
         id="stop50-8-9" />
    </radialGradient>
  </defs>
  <g
     inkscape:label="Layer 1"
     inkscape:groupmode="layer"
     id="layer1"
     transform="translate(-53.658862,-105.78388)">
    <g
       id="g691"
       transform="matrix(0.26458333,0,0,0.26458333,53.65888,105.78388)">
      <g
         clip-path="url(#clip-path)"
         id="g31"
         transform="translate(-215.995,-151.24)">
        <path
           id="rect29"
           fill="url(#linear-gradient)"
           d="M 215.83,151.24 H 551.22 V 350.05 H 215.83 Z"
           style="fill:url(#linear-gradient)" />
      </g>
      <g
         class="cls-4"
         clip-path="url(#clip-path-2)"
         id="g139"
         transform="translate(-215.995,-151.24)">
        <path
           class="cls-5"
           id="polygon33"
           d="m 264.77,233.48 34.64,15.92 5.68,-25.17 z" />
        <path
           class="cls-6"
           id="polygon35"
           d="m 237.49,253.19 -4.63,7.09 5.34,2.74 z" />
        <path
           class="cls-7"
           id="polygon37"
           d="m 237.49,253.19 0.71,9.83 14.88,-8.94 -13.81,-13.59 z" />
        <path
           class="cls-5"
           id="polygon39"
           d="m 253.08,254.08 -1.89,-27.29 -11.92,13.7 z" />
        <path
           class="cls-5"
           id="polygon41"
           d="m 238.2,263.02 9.64,4.94 5.24,-13.88 z" />
        <path
           class="cls-8"
           id="polygon43"
           d="m 247.84,267.96 14.66,-3.93 -9.42,-9.95 z" />
        <path
           class="cls-9"
           id="polygon45"
           d="m 262.5,264.03 4.39,-16.3 -13.81,6.35 z" />
        <path
           class="cls-10"
           id="polygon47"
           d="m 266.89,247.73 -2.12,-14.25 -11.69,20.6 z" />
        <path
           class="cls-8"
           id="polygon49"
           d="m 264.77,233.48 -13.58,-6.69 1.89,27.29 z" />
        <path
           class="cls-11"
           id="polygon51"
           d="m 264.77,233.48 -7.9,-19.05 -5.68,12.36 z" />
        <path
           class="cls-12"
           id="polygon53"
           d="m 264.78,233.48 6.9,-8.24 -14.81,-10.81 z" />
        <path
           class="cls-7"
           id="polygon55"
           d="m 264.77,233.48 40.32,-9.25 -33.41,1.01 z" />
        <path
           class="cls-9"
           id="polygon57"
           d="m 299.41,249.4 -34.63,-15.92 2.11,14.25 23.61,1.11 z" />
        <path
           class="cls-11"
           id="polygon59"
           d="m 290.5,248.84 -23.61,-1.11 20.69,16.3 11.83,-14.63 z" />
        <path
           class="cls-12"
           id="polygon61"
           d="m 266.89,247.73 -4.39,16.3 h 25.08 z" />
        <path
           class="cls-7"
           id="polygon63"
           d="m 346.96,231.69 28.73,-21.93 -70.6,14.47 z" />
        <path
           class="cls-8"
           id="polygon65"
           d="m 305.09,224.23 -5.68,25.17 47.55,-17.7 z" />
        <path
           class="cls-10"
           id="polygon67"
           d="m 299.41,249.4 45.88,6.91 1.67,-24.61 z" />
        <path
           class="cls-9"
           id="polygon69"
           d="m 299.41,249.4 30.48,39.05 15.4,-32.14 z" />
        <path
           class="cls-10"
           id="polygon71"
           d="m 299.41,249.4 -11.83,14.63 42.31,24.42 z" />
        <path
           class="cls-5"
           id="polygon73"
           d="m 329.89,288.45 23.18,6.22 28.97,-11.53 z" />
        <path
           class="cls-8"
           id="polygon75"
           d="m 382.04,283.14 -36.75,-26.83 -15.4,32.14 z" />
        <path
           class="cls-12"
           id="polygon77"
           d="m 382.04,283.14 17.04,-42.98 -53.79,16.15 z" />
        <path
           class="cls-11"
           id="polygon79"
           d="m 399.08,240.16 -52.12,-8.46 -1.67,24.61 z" />
        <path
           class="cls-9"
           id="polygon81"
           d="m 399.08,240.16 -23.39,-30.4 -28.73,21.94 z" />
        <path
           class="cls-5"
           id="polygon83"
           d="m 399.08,240.16 25.83,-26.84 -49.22,-3.56 z" />
        <path
           class="cls-8"
           id="polygon85"
           d="m 399.08,240.16 42.09,0.89 -16.26,-27.73 z" />
        <path
           class="cls-10"
           id="polygon87"
           d="m 441.17,241.05 -42.09,-0.89 35.19,33.63 3.12,-4.46 z" />
        <path
           class="cls-11"
           id="polygon89"
           d="m 399.08,240.16 0.89,36.53 34.3,-2.9 z" />
        <path
           class="cls-6"
           id="polygon91"
           d="m 399.08,240.16 -17.04,42.98 17.93,-6.45 z" />
        <path
           class="cls-5"
           id="polygon93"
           d="m 399.97,276.69 15.81,16.48 18.49,-19.38 z" />
        <path
           class="cls-5"
           id="polygon95"
           d="m 382.04,283.14 -5.23,30.37 19.04,-12.44 z" />
        <path
           class="cls-7"
           id="polygon97"
           d="m 382.04,283.14 -28.97,11.53 23.74,18.84 z" />
        <path
           class="cls-11"
           id="polygon99"
           d="m 376.81,313.51 9.21,7.31 9.83,-19.75 z" />
        <path
           class="cls-12"
           id="polygon101"
           d="m 386.02,320.82 20.63,-6.61 -10.8,-13.14 z" />
        <path
           class="cls-10"
           id="polygon103"
           d="m 386.02,320.82 25.82,20.5 -5.19,-27.11 z" />
        <path
           class="cls-11"
           id="polygon105"
           d="m 411.84,341.32 14.27,-0.23 -19.46,-26.88 z" />
        <path
           class="cls-6"
           id="polygon107"
           d="m 411.84,341.32 v 18.12 l 14.27,-18.35 z" />
        <path
           class="cls-10"
           id="polygon109"
           d="m 450.75,301.63 -54.9,-0.56 10.8,13.14 z" />
        <path
           class="cls-9"
           id="polygon111"
           d="m 450.75,301.63 -34.97,-8.46 -19.93,7.9 z" />
        <path
           class="cls-8"
           id="polygon113"
           d="m 450.75,301.63 -16.48,-27.84 -18.49,19.38 z" />
        <path
           class="cls-9"
           id="polygon115"
           d="m 437.39,269.33 19.48,-1.22 8.02,-5.9 -23.72,-21.16 z" />
        <path
           class="cls-9"
           id="polygon117"
           d="m 458.55,229.8 -33.64,-16.48 16.26,27.73 z" />
        <path
           class="cls-10"
           id="polygon119"
           d="m 441.17,241.05 38.31,15.26 -20.93,-26.51 z" />
        <path
           class="cls-12"
           id="polygon121"
           d="m 441.17,241.05 23.72,21.16 14.59,-5.9 z" />
        <path
           class="cls-11"
           id="polygon123"
           d="m 464.89,262.21 19.05,32.18 -4.46,-38.08 z" />
        <path
           class="cls-10"
           id="polygon125"
           d="m 483.94,294.39 14.36,-6.35 -18.82,-31.73 z" />
        <path
           class="cls-9"
           id="polygon127"
           d="m 483.94,294.39 34.52,13.25 -20.16,-19.6 z" />
        <path
           class="cls-8"
           id="polygon129"
           d="m 483.94,294.39 24.94,23.17 9.58,-9.92 z" />
        <path
           class="cls-5"
           id="polygon131"
           d="m 508.88,317.56 30.29,9.8 -20.71,-19.72 z" />
        <path
           class="cls-7"
           id="polygon133"
           d="m 539.17,327.36 1.89,-12.14 -22.6,-7.58 z" />
        <path
           class="cls-10"
           id="polygon135"
           d="m 541.07,315.22 -1.9,12.14 26.5,-4.68 -7.79,-7.46 z" />
        <path
           id="line137"
           fill="#f47d20"
           d="m 565.67,322.68 -26.5,4.67" />
      </g>
      <g
         aria-label="Tracker"
         transform="translate(13.825,264.08)"
         id="text151"
         font-size="43.45px"
         font-family="AirAmericana, 'Air Americana'"
         fill="#f8991d"
         letter-spacing="0.2em">
        <path
           d="m 12.73,-34.803 h 4.867 l -0.521,4.301 H 12.209 L 8.473,0 H 4.128 l 3.78,-30.502 H 2.607 l 0.521,-4.301 h 7.865 z"
           id="path172" />
        <path
           d="m 42.796,-22.246 q -0.174,1.303 -0.782,2.433 -0.565,1.13 -1.477,1.998 0.695,0.87 1,2.043 0.347,1.13 0.173,2.39 L 40.059,0 h -4.345 l 0.565,-4.302 1.086,-9.08 q 0.13,-0.957 -0.478,-1.608 -0.565,-0.652 -1.477,-0.652 H 31.847 L 30.457,-4.302 29.891,0 H 25.59 l 1.912,-15.642 h -1.564 l 0.521,-4.302 h 1.564 l 1.825,-14.86 h 7.908 q 1.347,0 2.477,0.522 1.13,0.521 1.911,1.39 0.783,0.87 1.174,2.086 0.39,1.217 0.217,2.564 z m -6.865,2.302 q 0.913,0 1.651,-0.651 0.782,-0.696 0.87,-1.651 l 0.043,-0.087 0.695,-5.91 q 0.13,-0.955 -0.478,-1.607 -0.565,-0.652 -1.52,-0.652 h -3.52 l -1,8.169 -0.304,2.39 z"
           id="path174" />
        <path
           d="m 64.963,-34.803 q 1.347,0 2.477,0.52 1.173,0.522 1.955,1.391 0.782,0.87 1.13,2.086 0.39,1.217 0.217,2.563 L 67.266,0 h -4.302 l 0.522,-4.302 0.521,-4.388 H 58.185 L 57.663,-4.302 57.142,0 h -4.345 l 1.086,-8.69 H 52.32 l 0.521,-4.302 h 1.565 l 1.868,-15.25 q 0.174,-1.347 0.825,-2.564 0.696,-1.217 1.695,-2.086 1,-0.869 2.26,-1.39 1.26,-0.521 2.606,-0.521 z m 1.477,6.56 q 0.087,-0.955 -0.478,-1.607 -0.565,-0.652 -1.52,-0.652 h -1.304 q -0.912,0 -1.695,0.652 -0.738,0.652 -0.825,1.607 l -0.739,5.91 -1.13,9.341 h 5.823 l 1.13,-9.341 z"
           id="path176" />
        <path
           d="m 84.686,-8.69 -0.217,2.086 q -0.13,0.955 0.434,1.65 0.609,0.652 1.521,0.652 h 7.908 L 93.767,0 h -7.864 q -1.174,0 -2.216,-0.391 -1.825,-0.695 -2.825,-2.346 -0.999,-1.695 -0.738,-3.867 l 0.26,-2.086 0.522,-4.302 1.868,-15.25 q 0.26,-2.13 1.695,-3.78 1.434,-1.695 3.389,-2.39 1.086,-0.391 2.346,-0.391 h 7.865 l -0.522,4.301 H 89.64 q -0.912,0 -1.694,0.652 -0.739,0.652 -0.826,1.608 l -0.738,5.909 -1.13,9.341 -0.087,0.522 z"
           id="path178" />
        <path
           d="m 121.532,-6.778 q -0.044,0.13 -0.044,0.39 L 120.663,0 h -4.302 l 0.521,-4.302 0.305,-2.302 q 0.043,-0.87 -0.565,-1.478 -0.565,-0.608 -1.434,-0.608 h -3.606 L 111.06,-4.302 110.54,0 h -4.345 l 1.086,-8.69 h -1.564 l 0.521,-4.302 h 1.564 l 1.869,-15.25 0.825,-6.561 h 4.302 l -0.044,0.39 -0.738,6.17 -0.739,5.91 -1.13,9.341 h 3.563 q 0.87,0 1.608,-0.608 0.739,-0.652 0.912,-1.52 l 0.87,-7.213 0.738,-5.91 0.739,-6.17 0.043,-0.39 h 4.345 l -0.825,6.56 -1.565,12.992 q -0.043,0.087 -0.043,0.26 -0.217,1.174 -0.782,2.26 -0.565,1.043 -1.434,1.912 1.347,1.694 1.217,4.04 z"
           id="path180" />
        <path
           d="m 152.468,-34.803 -0.521,4.301 h -7.865 q -0.956,0 -1.694,0.652 -0.74,0.652 -0.87,1.607 l -0.738,5.91 -0.26,2.346 h 6.385 l -0.521,4.345 h -6.431 l -0.825,6.909 -0.217,1.824 -0.044,0.305 q -0.087,0.869 0.348,1.477 0.434,0.608 1.216,0.782 h 8.299 l -0.521,4.302 V 0 h -8.256 q -0.13,0 -0.347,-0.043 -0.739,-0.044 -1.521,-0.348 -1.825,-0.695 -2.824,-2.346 -1,-1.695 -0.739,-3.867 l 0.26,-2.086 0.305,-2.26 0.217,-2.042 0.348,-2.65 h -1.564 l 0.521,-4.302 h 1.564 l 1.043,-8.298 q 0.26,-2.13 1.651,-3.78 1.434,-1.695 3.39,-2.39 1.085,-0.391 2.346,-0.391 h 1.303 z"
           id="path182" />
        <path
           d="m 177.886,-22.246 q -0.174,1.303 -0.782,2.433 -0.565,1.13 -1.477,1.998 0.695,0.87 1,2.043 0.347,1.13 0.173,2.39 L 175.149,0 h -4.345 l 0.565,-4.302 1.086,-9.08 q 0.13,-0.957 -0.478,-1.608 -0.565,-0.652 -1.477,-0.652 h -3.563 l -1.39,11.34 L 164.981,0 h -4.302 l 1.912,-15.642 h -1.564 l 0.521,-4.302 h 1.564 l 1.825,-14.86 h 7.908 q 1.347,0 2.477,0.522 1.13,0.521 1.911,1.39 0.783,0.87 1.174,2.086 0.39,1.217 0.217,2.564 z m -6.865,2.302 q 0.913,0 1.651,-0.651 0.782,-0.696 0.87,-1.651 l 0.043,-0.087 0.695,-5.91 q 0.13,-0.955 -0.478,-1.607 -0.565,-0.652 -1.52,-0.652 h -3.52 l -1,8.169 -0.304,2.39 z"
           id="path184" />
      </g>
      <g
         aria-label="suivi"
         transform="translate(238.745,264.08)"
         id="text159"
         font-size="43.45px"
         font-family="AirAmericana, 'Air Americana'"
         fill="#5b2818">
        <path
           d="m 15.381,-9.602 -0.347,2.998 -0.087,0.39 q -0.348,2.043 -1.738,3.607 -1.347,1.52 -3.259,2.216 Q 9.429,-0.217 8.864,-0.087 8.342,0 7.778,0 h -8.039 l 0.522,-4.302 h 7.951 q 0.913,-0.043 1.651,-0.695 0.739,-0.652 0.826,-1.564 l 0.825,-6.822 q 0.13,-0.912 -0.434,-1.564 -0.565,-0.695 -1.521,-0.695 H 8.082 q -1.304,-0.043 -2.39,-0.521 -1.043,-0.522 -1.825,-1.347 -0.739,-0.826 -1.13,-1.956 -0.39,-1.13 -0.304,-2.39 l 0.044,-0.39 0.738,-5.997 q 0.261,-2.129 1.651,-3.78 1.434,-1.694 3.434,-2.39 1.086,-0.39 2.303,-0.39 h 7.863 l -0.521,4.301 H 10.08 q -0.955,0 -1.694,0.652 -0.739,0.652 -0.87,1.608 l -0.738,5.996 q -0.087,0.956 0.478,1.607 0.565,0.652 1.477,0.695 h 1.347 v -0.043 l 0.044,0.043 q 1.173,0 2.172,0.392 1.825,0.695 2.825,2.39 0.999,1.65 0.738,3.78 l -0.39,2.997 z"
           id="path188"
           letter-spacing="0.2em" />
        <path
           d="m 33.196,0 q -1.39,0 -2.52,-0.521 -1.13,-0.522 -1.912,-1.39 -0.782,-0.913 -1.173,-2.086 -0.348,-1.217 -0.174,-2.607 l 3.476,-28.2 h 4.301 l -3.432,28.2 q -0.13,0.955 0.434,1.65 0.609,0.652 1.521,0.652 h 1.304 q 0.956,0 1.694,-0.651 0.739,-0.696 0.87,-1.651 l 3.432,-28.2 h 4.345 l -3.476,28.2 q -0.174,1.39 -0.826,2.607 -0.652,1.173 -1.65,2.085 -1,0.87 -2.304,1.39 Q 35.846,0 34.5,0 Z"
           id="path190"
           letter-spacing="0.2em" />
        <path
           d="m 58.093,-34.803 h 4.345 L 58.136,0 h -4.302 z"
           id="path192"
           letter-spacing="0.2em" />
        <path
           d="m 90.072,-34.803 -3.433,28.199 q -0.174,1.39 -0.869,2.607 -0.652,1.173 -1.65,2.085 -1,0.87 -2.304,1.39 Q 80.556,0 79.21,0 h -7.864 l 4.258,-34.803 h 4.345 L 76.21,-4.302 h 3.563 q 0.913,0 1.651,-0.651 0.782,-0.696 0.87,-1.651 l 3.475,-28.2 z"
           id="path194"
           letter-spacing="0.2em" />
        <path
           d="m 103.418,-34.803 h 4.345 L 103.462,0 H 99.16 Z"
           id="path196" />
      </g>
      <g
         class="cls-4"
         clip-path="url(#clip-path-2)"
         id="g165"
         transform="translate(-215.995,-151.24)">
        <path
           id="polygon163"
           d="M 448.29,392.44 H 431.5 l -16.8,8.39 h 16.8 z"
           class="cls-11"
           fill="#b93c26"
           fill-rule="evenodd" />
      </g>
    </g>
    <g
       transform="matrix(-0.38339762,0,0,0.38339762,-607.54288,487.16444)"
       style="display:inline"
       id="g15745">
      <path
         d="m -1764.6075,-935.9985 c 0,0 3.8003,2.04759 9.6285,4.07616 3.5202,1.22728 9.7726,-0.84277 13.0276,-1.70481 3.26,-0.86511 8.8927,-2.65449 7.3298,-4.21743 -1.5631,-1.56257 -6.0571,-4.89537 -6.0571,-4.89537 0,0 4.2789,7.06582 -23.9295,6.74145 z"
         style="fill:#ffffff;stroke:#000000;stroke-width:1.89946;stroke-linejoin:round;stroke-opacity:1"
         id="path9-1-4"
         inkscape:connector-curvature="0" />
      <path
         inkscape:connector-curvature="0"
         id="path13-3-8"
         style="fill:#ffffff;stroke:#000000;stroke-width:1.89946;stroke-linejoin:round;stroke-opacity:1"
         d="m -1738.5952,-941.13712 c 0,2.98008 -8.9157,5.39684 -19.915,5.39684 -10.9985,0 -19.9126,-2.41639 -19.9126,-5.39684 2.2937,-1.66297 1.9624,-3.06329 1.9624,-3.06329 h 35.9961 c 0,0 -0.3197,1.39983 1.8691,3.06255 z" />
      <path
         d="m -1774.2711,-954.86792 c 0.4453,-1.01594 2.1705,-4.52486 5.6775,-6.995 6.3577,-4.4835 14.2414,-3.62821 18.8768,-0.93691 3.1324,1.82227 5.2903,4.17054 7.0001,7.61821 0.4172,0.84216 1.1951,2.63915 1.7282,5.20993 0.4613,2.22972 0.5058,3.63581 0.58,5.97108 0,1.95125 -3.7069,3.71117 -10.0877,4.56818 -8.93,1.19586 -19.7224,0.15709 -24.1026,-2.3198 -1.2534,-0.70839 -1.8451,-1.46218 -1.8426,-2.19634 0.092,-3.01727 0.204,-6.43549 2.1707,-10.91935 z"
         style="fill:#ffffff;stroke-linejoin:round"
         id="path19-3-0"
         inkscape:connector-curvature="0" />
      <path
         d="m -1774.2711,-954.86792 c 0.4453,-1.01594 2.1705,-4.52486 5.6775,-6.995 6.3577,-4.4835 14.2414,-3.62821 18.8768,-0.93691 3.1324,1.82227 5.2903,4.17054 7.0001,7.61821 0.4172,0.84216 1.1951,2.63915 1.7282,5.20993 0.4613,2.22972 0.5058,3.63581 0.58,5.97108 0,1.95125 -3.7069,3.71117 -10.0877,4.56818 -8.93,1.19586 -19.7224,0.15709 -24.1026,-2.3198 -1.2534,-0.70839 -1.8451,-1.46218 -1.8426,-2.19634 0.092,-3.01727 0.204,-6.43549 2.1707,-10.91935 z"
         style="fill:#74fc00;fill-opacity:1;stroke:#000000;stroke-width:1.89946;stroke-linejoin:round;stroke-opacity:1"
         id="path23-1-6"
         inkscape:connector-curvature="0" />
      <path
         d="m -1764.7572,-936.08809 c 0,0 3.8014,2.04415 9.6284,4.07591 3.5189,1.22483 9.7706,-0.84277 13.0263,-1.70788 3.2599,-0.86192 8.8934,-2.65141 7.3303,-4.21754 -1.5629,-1.56233 -6.0547,-4.89329 -6.0547,-4.89329 0,0 4.277,7.06618 -23.9307,6.7428 z"
         style="fill:#ffbd34;fill-opacity:1;stroke:#ffbd34;stroke-width:0.633166;stroke-linejoin:round;stroke-opacity:1"
         id="path27-6-0"
         inkscape:connector-curvature="0" />
      <path
         sodipodi:nodetypes="csccccc"
         inkscape:connector-curvature="0"
         id="path31-3-3"
         style="fill:#ffbd34;fill-opacity:1;stroke:#ffbd34;stroke-width:0.633166;stroke-linejoin:round;stroke-opacity:1"
         d="m -1738.7453,-941.22671 c 0,2.98032 -8.913,5.39499 -19.9138,5.39499 -10.998,0 -19.9138,-2.41405 -19.9138,-5.39499 2.2952,-1.66272 1.961,-3.06243 1.961,-3.06243 h 35.9986 c 0,0 -0.214,1.63369 1.9731,3.29629 z" />
      <path
         d="m -1774.422,-954.95874 c 0.4452,-1.01521 2.1713,-4.52265 5.6774,-6.99513 6.357,-4.48337 14.2401,-3.6271 18.8767,-0.93616 3.1344,1.82238 5.2911,4.17041 6.9995,7.61526 0.418,0.84216 1.1977,2.63915 1.7282,5.21128 0.46,2.22825 0.505,3.63557 0.5804,5.96789 0,1.95137 -3.7087,3.71424 -10.0905,4.5683 -8.9296,1.19893 -19.7211,0.15697 -24.1,-2.31993 -1.2535,-0.70838 -1.8464,-1.45948 -1.8437,-2.19633 0.096,-3.01248 0.2077,-6.43119 2.1721,-10.91518 z"
         style="fill:#ffd520;stroke-linejoin:round"
         id="path37-0-6"
         inkscape:connector-curvature="0" />
      <path
         d="m -1774.422,-954.95874 c 0.4452,-1.01521 2.1713,-4.52265 5.6774,-6.99513 6.357,-4.48337 14.2401,-3.6271 18.8767,-0.93616 3.1344,1.82238 5.2911,4.17041 6.9995,7.61526 0.418,0.84216 1.1977,2.63915 1.7282,5.21128 0.46,2.22825 0.505,3.63557 0.5804,5.96789 0,1.95137 -3.7087,3.71424 -10.0905,4.5683 -8.9296,1.19893 -19.7211,0.15697 -24.1,-2.31993 -1.2535,-0.70838 -1.8464,-1.45948 -1.8437,-2.19633 0.096,-3.01248 0.2077,-6.43119 2.1721,-10.91518 z"
         style="fill:none;stroke:#000000;stroke-width:0.633166;stroke-linejoin:round"
         id="path41-6-5"
         inkscape:connector-curvature="0" />
      <path
         d="m -1774.422,-954.95874 c 0.4452,-1.01521 2.1713,-4.52265 5.6774,-6.99513 6.357,-4.48337 14.2401,-3.6271 18.8767,-0.93616 3.1344,1.82238 5.2911,4.17041 6.9995,7.61526 0.418,0.84216 1.1977,2.63915 1.7282,5.21128 0.46,2.22825 0.505,3.63557 0.5804,5.96789 0,1.95137 -3.7087,3.71424 -10.0905,4.5683 -8.9296,1.19893 -19.7211,0.15697 -24.1,-2.31993 -1.2535,-0.70838 -1.8464,-1.45948 -1.8437,-2.19633 0.096,-3.01248 0.2077,-6.43119 2.1721,-10.91518 z"
         style="fill:url(#radialGradient3026-9-1);stroke:#fac44b;stroke-linejoin:round;stroke-opacity:1"
         id="path52-0-7"
         inkscape:connector-curvature="0" />
      <path
         d="m -1767.915,-962.62629 c 13.3737,-8.528 26.9474,8.98687 26.5227,20.23415 l 1.2441,0.50196 c -7e-4,-12.25929 -13.2853,-30.32975 -27.7672,-20.73611"
         style="fill:#cccccc;stroke-linejoin:round"
         id="path60-2-9"
         inkscape:connector-curvature="0" />
      <polygon
         transform="matrix(-0.12272793,0,0,0.12272793,-1731.9594,-974.55471)"
         id="polygon62-6-3"
         style="fill:#cccccc;stroke-linejoin:round"
         points="66.729,266.15 76.865,262.06 61.197,281.15 " />
      <path
         d="m -1745.3502,-940.13566 c 0,-11.09583 -6.6212,-28.38329 -18.6117,-24.45845 12.8582,-4.35218 23.8104,11.56833 23.8104,22.70098 l 0.6789,1.84129 -5.2013,1.75427 -0.6765,-1.83772 z"
         style="fill:#ffd467;fill-opacity:1;stroke:none;stroke-width:0.633166;stroke-linecap:round;stroke-linejoin:round"
         id="path64-7-7"
         inkscape:connector-curvature="0" />
      <path
         d="m -1745.349,-940.13566 0.6782,1.84141 -3.0497,-2.13755 c 0.4259,-11.24802 -6.82,-30.72126 -20.1949,-22.19658 14.4819,-9.59106 22.566,10.23183 22.566,22.49358 z"
         style="fill:#cccccc;stroke-linejoin:round"
         id="path70-9-2"
         inkscape:connector-curvature="0" />
      <path
         d="m -1745.349,-940.13566 0.6782,1.84141 -3.0497,-2.13755 c 0.4259,-11.24802 -6.82,-30.72126 -20.1949,-22.19658 14.4819,-9.59106 22.566,10.23183 22.566,22.49358 z"
         style="fill:#ffbd34;fill-opacity:1;stroke:none;stroke-width:0.633166;stroke-linecap:round;stroke-linejoin:round"
         id="path74-7-4"
         inkscape:connector-curvature="0" />
      <polygon
         transform="matrix(-0.12272793,0,0,0.12272793,-1731.9594,-974.55471)"
         id="polygon78-8-4"
         style="fill:#ffbd34;fill-opacity:1;stroke:#ffbd34;stroke-width:5.1591;stroke-linecap:round;stroke-linejoin:round;stroke-opacity:1"
         points="265.49,233.41 267.24,277.31 253.03,251.64 254.68,222.57 " />
      <polygon
         style="stroke-linejoin:round"
         transform="matrix(-0.12272793,0,0,0.12272793,-1731.9594,-974.55471)"
         id="polygon80-2-4"
         points="327.99,223.07 329.73,266.98 320.7,241.3 322.32,217.4 " />
      <path
         inkscape:connector-curvature="0"
         id="path82-9-3"
         style="fill:#ffd467;fill-opacity:1;stroke:#ffd467;stroke-width:0.633166;stroke-linecap:round;stroke-linejoin:round;stroke-opacity:1"
         d="m -1764.7572,-940.52103 c 0,0 -7.3005,-0.90536 -7.6667,-1.27121 -0.3672,-0.36291 0.2126,-5.38788 0.2126,-5.38788 l 7.6696,1.26802 z" />
      <polygon
         transform="matrix(-0.12272793,0,0,0.12272793,-1731.9594,-974.55471)"
         id="polygon84-9-0"
         style="fill:#f4b253;fill-opacity:1;stroke:#f4b253;stroke-width:5.1591;stroke-linecap:round;stroke-linejoin:round;stroke-opacity:1"
         points="317.16,212.24 254.68,222.57 265.49,233.41 327.99,223.07 " />
    </g>
  </g>
</svg>
